<?xml version="1.0" encoding="UTF-8" standalone="no"?>
<!-- Created with Inkscape (http://www.inkscape.org/) -->

<svg
   xmlns:dc="http://purl.org/dc/elements/1.1/"
   xmlns:cc="http://creativecommons.org/ns#"
   xmlns:rdf="http://www.w3.org/1999/02/22-rdf-syntax-ns#"
   xmlns:svg="http://www.w3.org/2000/svg"
   xmlns="http://www.w3.org/2000/svg"
   xmlns:sodipodi="http://sodipodi.sourceforge.net/DTD/sodipodi-0.dtd"
   xmlns:inkscape="http://www.inkscape.org/namespaces/inkscape"
   width="120.16894mm"
   height="8.5069017mm"
   viewBox="0 0 120.16893 8.5069017"
   version="1.1"
   id="svg8"
   inkscape:version="0.92.4 (5da689c313, 2019-01-14)"
   sodipodi:docname="obsah_02.svg"
   inkscape:export-filename="/home/janik/documents/na/rozpravky/strany/str12.png"
   inkscape:export-xdpi="96"
   inkscape:export-ydpi="96">
  <defs
     id="defs2" />
  <sodipodi:namedview
     id="base"
     pagecolor="#ffffff"
     bordercolor="#666666"
     borderopacity="1.0"
     inkscape:pageopacity="0.0"
     inkscape:pageshadow="2"
     inkscape:zoom="1.0333052"
     inkscape:cx="153.40462"
     inkscape:cy="-19.252044"
     inkscape:document-units="mm"
     inkscape:current-layer="layer1"
     showgrid="false"
     inkscape:showpageshadow="false"
     borderlayer="true"
     objecttolerance="1"
     guidetolerance="1"
     inkscape:window-width="1278"
     inkscape:window-height="783"
     inkscape:window-x="0"
     inkscape:window-y="15"
     inkscape:window-maximized="0"
     gridtolerance="1"
     scale-x="1"
     fit-margin-top="0"
     fit-margin-left="0"
     fit-margin-right="0"
     fit-margin-bottom="0">
    <sodipodi:guide
       position="-15.075519,-159.64993"
       orientation="0,559.37008"
       id="guide1560"
       inkscape:locked="false" />
    <sodipodi:guide
       position="132.92448,50.350065"
       orientation="0,-559.37008"
       id="guide1564"
       inkscape:locked="false" />
    <sodipodi:guide
       position="-15.075519,50.350065"
       orientation="793.70079,0"
       id="guide1566"
       inkscape:locked="false" />
  </sodipodi:namedview>
  <metadata
     id="metadata5">
    <rdf:RDF>
      <cc:Work
         rdf:about="">
        <dc:format>image/svg+xml</dc:format>
        <dc:type
           rdf:resource="http://purl.org/dc/dcmitype/StillImage" />
        <dc:title></dc:title>
      </cc:Work>
    </rdf:RDF>
  </metadata>
  <g
     inkscape:label="Layer 1"
     inkscape:groupmode="layer"
     id="layer1"
     transform="translate(-15.07552,-128.84316)">
    <path
       style="fill:#000000;stroke-width:0.0676737"
       d="m 26.430875,137.1717 c -0.164136,-0.20865 -0.180845,-0.54098 -0.04372,-0.86918 0.0531,-0.12708 0.11763,-0.47277 0.1434,-0.7682 0.06248,-0.71623 -0.07826,-1.18361 -0.389056,-1.29195 -0.115201,-0.0402 -0.25984,-0.073 -0.32143,-0.073 -0.12276,0 -0.544563,0.40232 -0.544563,0.51941 0,0.0402 -0.04249,0.10835 -0.09443,0.15146 -0.05194,0.0431 -0.115607,0.19125 -0.141492,0.32922 -0.02588,0.13796 -0.06506,0.27998 -0.08707,0.31558 -0.022,0.0356 -0.04879,0.21856 -0.05953,0.40656 -0.01699,0.29748 0.003,0.36044 0.154729,0.48534 0.147313,0.12134 0.162566,0.16535 0.09868,0.28473 -0.07135,0.13331 -0.114355,0.139 -0.768394,0.10164 -0.38105,-0.0218 -0.719703,-0.0641 -0.752558,-0.0941 -0.152361,-0.13901 0.203244,-0.42832 0.511071,-0.4158 0.144781,0.006 0.216942,-0.1786 0.116974,-0.29905 -0.05717,-0.0689 -0.05747,-0.17001 -0.0011,-0.39359 0.04167,-0.16549 0.07577,-0.39028 0.07577,-0.49952 0,-0.10925 0.04538,-0.30724 0.100841,-0.43997 0.120506,-0.28843 0.07798,-0.45063 -0.105571,-0.40263 -0.159534,0.0417 -0.333638,-0.0901 -0.333638,-0.25257 0,-0.0844 0.0877,-0.14111 0.301723,-0.195 0.298854,-0.0752 0.514049,-0.23894 0.716786,-0.54523 0.09257,-0.13985 0.123356,-0.14863 0.26162,-0.0746 0.142243,0.0761 0.152598,0.11489 0.112142,0.41982 l -0.04456,0.33595 0.211575,-0.15643 c 0.506612,-0.37455 1.350348,-0.0698 1.538047,0.55557 0.116521,0.38821 0.07058,0.97816 -0.123727,1.58891 -0.154107,0.48439 -0.182327,0.84515 -0.09662,1.23505 0.04465,0.20311 0.03519,0.21994 -0.123606,0.21994 -0.105158,0 -0.226436,-0.0693 -0.312213,-0.17832 z m 20.364872,-0.067 c -0.13027,-0.0923 -0.38913,-0.31295 -0.57523,-0.49032 -0.81518,-0.77692 -2.16667,-1.83509 -2.34442,-1.8356 -0.13918,-6.8e-4 -0.17389,0.0901 -0.23221,0.60569 -0.0256,0.22666 -0.0731,0.42846 -0.10539,0.44844 -0.0323,0.02 -0.0588,0.0741 -0.0588,0.12036 0,0.0609 0.12813,0.078 0.46599,0.0621 0.45165,-0.0213 0.46732,-0.0166 0.50962,0.15193 0.024,0.0956 0.0257,0.20284 0.004,0.23826 -0.0538,0.087 -1.93371,0.11031 -2.07072,0.0256 -0.091,-0.0562 -0.0701,-0.2806 0.0297,-0.3189 0.0489,-0.0188 0.17014,-0.0186 0.26946,6.7e-4 0.14668,0.028 0.19274,0.003 0.24539,-0.13594 0.056,-0.14739 0.16971,-0.83417 0.24875,-1.50285 0.0132,-0.11166 0.055,-0.38574 0.0928,-0.60906 0.0948,-0.55896 0.27327,-2.11771 0.27302,-2.38394 0,-0.15813 -0.0469,-0.24897 -0.16939,-0.32924 -0.20916,-0.13704 -0.21332,-0.24711 -0.0169,-0.44753 0.0838,-0.0855 0.24731,-0.27564 0.36347,-0.42263 l 0.2112,-0.26724 0.18618,0.12198 0.18618,0.12199 -0.0485,0.75436 c -0.0267,0.4149 -0.0721,0.78481 -0.10086,0.82204 -0.0592,0.0765 -0.19013,0.77688 -0.24042,1.2858 -0.10959,1.10881 -0.10959,1.11736 6.7e-4,1.15968 0.0588,0.0226 0.15906,-0.005 0.22281,-0.061 0.22163,-0.19504 0.83872,-0.46359 1.01757,-0.44284 0.22016,0.0255 0.29873,0.25773 0.0872,0.25773 -0.0757,0 -0.19215,0.0556 -0.25873,0.12359 -0.0666,0.068 -0.22005,0.16303 -0.34101,0.21123 -0.2689,0.10715 -0.2799,0.23339 -0.0338,0.38825 0.10235,0.0644 0.38405,0.28749 0.62598,0.49573 0.24193,0.20824 0.52721,0.44513 0.63395,0.52643 0.10674,0.0813 0.34511,0.28527 0.52971,0.45326 0.1846,0.16799 0.37298,0.30544 0.41863,0.30544 0.0457,0 0.18721,0.10751 0.31457,0.23891 0.18806,0.19404 0.2178,0.26078 0.15829,0.35529 -0.10636,0.16891 -0.23122,0.16202 -0.49866,-0.0275 z m 8.32635,-0.22235 c -0.13603,-0.32842 -0.24514,-0.37772 -0.84933,-0.3838 -0.4555,-0.005 -0.59248,-0.032 -0.76142,-0.15227 -0.11329,-0.0807 -0.25187,-0.14668 -0.30795,-0.14668 -0.13889,0 -0.45237,-0.38414 -0.45237,-0.55434 0,-0.27588 0.33428,-0.76588 0.63428,-0.92977 0.23974,-0.13097 0.35804,-0.15241 0.69036,-0.12515 0.22058,0.0181 0.44672,0.045 0.50255,0.0598 0.0715,0.0189 0.10758,-0.0355 0.12205,-0.18414 0.0174,-0.17837 -0.0288,-0.2544 -0.29818,-0.49156 -0.30417,-0.26773 -0.32457,-0.27526 -0.44663,-0.1648 -0.12549,0.11357 -0.51334,0.1478 -0.65845,0.0581 -0.12134,-0.075 -0.0806,-0.41423 0.0657,-0.5466 0.10427,-0.0944 0.24156,-0.12406 0.56203,-0.1216 0.52447,0.004 0.89622,0.11822 1.16103,0.35667 0.11166,0.10054 0.28677,0.23467 0.38913,0.29806 0.16291,0.1009 0.1861,0.1575 0.1861,0.45425 0,0.18644 -0.0487,0.4522 -0.10828,0.59058 -0.0596,0.13838 -0.12428,0.51104 -0.14385,0.82814 -0.031,0.50214 -0.0175,0.60625 0.10445,0.80677 0.10665,0.17537 0.12357,0.26097 0.071,0.35923 -0.038,0.0709 -0.10866,0.11378 -0.1571,0.0952 -0.0484,-0.0186 -0.11785,-0.004 -0.15423,0.0324 -0.0431,0.0431 -0.0957,-0.005 -0.15087,-0.13839 z m -0.32982,-1.15646 c -0.0351,-0.5726 -0.237,-0.72228 -0.67774,-0.50241 -0.24911,0.12427 -0.3484,0.28161 -0.3484,0.5521 0,0.30035 0.11356,0.36421 0.6084,0.34215 l 0.44054,-0.0196 z m 14.75252,1.08278 c 0,-0.0931 0.0154,-0.13112 0.0341,-0.0846 0.0188,0.0465 0.0188,0.12265 0,0.16918 -0.0188,0.0465 -0.0341,0.008 -0.0341,-0.0846 z m -40.58107,0 c -0.0744,-0.032 -0.21676,-0.0603 -0.31626,-0.0629 -0.0995,-0.003 -0.27139,-0.0809 -0.38197,-0.17394 -0.11059,-0.0931 -0.24236,-0.17015 -0.29281,-0.17134 -0.2536,-0.006 -0.532594,-0.47525 -0.530503,-0.89235 0.003,-0.58949 0.724653,-1.18364 1.335443,-1.0994 0.35596,0.0491 0.37469,-0.0442 0.0734,-0.36571 l -0.21358,-0.22789 -0.0904,0.17249 c -0.16669,0.31816 -0.61315,0.32468 -0.75605,0.011 -0.10258,-0.22514 -0.0975,-0.44248 0.0138,-0.58897 0.18226,-0.23997 1.07459,-0.14207 1.53538,0.16846 0.28251,0.19038 0.54535,0.89126 0.56817,1.51502 0.0115,0.31562 0.0735,0.53884 0.25618,0.9236 0.17553,0.36961 0.22071,0.52764 0.16637,0.58197 -0.11818,0.11818 -0.23002,0.0882 -0.37941,-0.10173 l -0.13869,-0.17631 -0.31563,0.27782 c -0.3402,0.29946 -0.33258,0.29646 -0.53343,0.21016 z m 0.30629,-0.65735 c 0.18513,-0.13822 0.33661,-0.29542 0.33661,-0.34934 0,-0.0539 -0.0774,-0.23014 -0.17204,-0.39159 -0.19572,-0.33398 -0.32231,-0.36307 -0.79094,-0.18175 -0.32815,0.12695 -0.59352,0.34093 -0.59352,0.47857 0,0.1975 0.21676,0.4979 0.42504,0.58904 0.33187,0.14523 0.43022,0.12729 0.79485,-0.14493 z m -7.229311,0.50847 c -0.09702,-0.097 -0.103927,-0.43615 -0.0191,-0.93839 0.03416,-0.20225 0.08009,-0.58879 0.102045,-0.85901 l 0.03994,-0.49128 -0.371651,0.0437 c -0.256185,0.0301 -0.403531,0.0172 -0.47425,-0.0415 -0.134366,-0.1115 -0.13216,-0.33926 0.0032,-0.33926 0.236432,0 0.752457,-0.28384 0.866251,-0.47648 0.12835,-0.21728 0.315948,-0.25909 0.448101,-0.0999 0.0657,0.0792 0.06612,0.22588 0.002,0.69365 -0.04474,0.32629 -0.10612,1.01029 -0.136397,1.52 -0.03028,0.50971 -0.07493,0.95889 -0.09921,0.99819 -0.05934,0.096 -0.260673,0.0906 -0.360999,-0.01 z m 110.270014,-0.005 c -0.12033,-0.088 -0.093,-0.31966 0.0376,-0.31966 0.0364,0 0.43115,-0.37275 0.87714,-0.82833 0.66407,-0.67835 0.85373,-0.91858 1.04738,-1.32667 0.24127,-0.50843 0.25436,-0.65423 0.0423,-0.47098 -0.21319,0.18422 -0.68984,0.2624 -0.92607,0.1519 -0.65534,-0.30655 -0.83837,-0.54734 -0.84573,-1.11263 -0.006,-0.48877 0.1483,-0.78008 0.56511,-1.06451 0.32047,-0.21868 0.35135,-0.22588 0.80186,-0.18715 0.51869,0.0446 0.84697,0.20843 1.15775,0.57776 0.16487,0.19594 0.18287,0.26801 0.17484,0.69995 -0.0104,0.56071 -0.14008,1.08459 -0.35388,1.42997 -0.13945,0.22526 -0.87447,1.23125 -1.03109,1.4112 -0.11303,0.12988 -1.0038,0.89309 -1.18243,1.01311 -0.20097,0.13503 -0.21445,0.13599 -0.36481,0.026 z m 1.7616,-3.24655 c 0.1225,-0.0837 0.25567,-0.24362 0.29594,-0.35529 0.0403,-0.11166 0.11702,-0.28923 0.17057,-0.3946 0.14014,-0.27571 0.1206,-0.43298 -0.0692,-0.55736 -0.43213,-0.28314 -1.14081,-0.15538 -1.33902,0.24139 -0.39067,0.78203 0.26742,1.52685 0.94174,1.06586 z M 50.576327,136.529 c -0.1433,-0.14329 -0.14373,-0.14904 -0.0181,-0.24094 0.0708,-0.0518 0.20486,-0.1106 0.29791,-0.13071 0.32041,-0.0692 0.33837,-0.0875 0.33873,-0.34457 0,-0.14074 0.0579,-0.60611 0.12831,-1.03415 0.1542,-0.93791 0.19821,-1.41595 0.25077,-2.72386 l 0.0401,-0.99819 h -0.23962 c -0.32946,0 -0.3751,-0.11894 -0.12175,-0.31722 0.2467,-0.19307 0.74868,-0.83049 0.92267,-1.1716 0.0664,-0.13027 0.14112,-0.25209 0.16596,-0.2707 0.0248,-0.0186 0.0858,-0.13421 0.13541,-0.2569 0.11123,-0.2749 0.2543,-0.2621 0.42983,0.0384 0.12581,0.21541 0.1259,0.22538 0.004,0.39615 -0.29616,0.41374 -0.42776,0.68125 -0.4286,0.87126 -9.5e-4,0.20686 -0.22534,1.59253 -0.34266,2.11577 -0.0356,0.15872 -0.065,0.6612 -0.0654,1.11662 -6.8e-4,0.45542 -0.0325,1.19032 -0.0713,1.63313 l -0.0706,0.80509 0.20257,0.21001 c 0.28066,0.29097 0.19793,0.42328 -0.25569,0.40889 -0.18678,-0.006 -0.42918,-0.0479 -0.53869,-0.0932 -0.1649,-0.0683 -0.23494,-0.0639 -0.40791,0.0255 -0.19852,0.10267 -0.21606,0.10075 -0.35561,-0.0388 z m 19.03609,-0.0724 c -0.16163,-0.0783 -0.40247,-0.24485 -0.53517,-0.37 -0.14028,-0.1323 -0.28637,-0.21355 -0.349,-0.1941 -0.0593,0.0184 -0.13955,0.0113 -0.17843,-0.0157 -0.17055,-0.11872 -0.37587,-0.60095 -0.41492,-0.97446 -0.037,-0.35437 -0.0187,-0.45331 0.14955,-0.80524 0.10547,-0.22068 0.20901,-0.40127 0.23008,-0.40132 0.0211,-4e-5 0.1268,-0.0762 0.23494,-0.16918 0.10815,-0.093 0.23757,-0.1691 0.28761,-0.1691 0.0501,0 0.091,-0.025 0.091,-0.0556 0,-0.0654 0.83761,0.0253 0.98258,0.10639 0.0547,0.0306 0.2495,0.23312 0.4329,0.45003 0.26359,0.31175 0.34291,0.46302 0.37851,0.72191 0.0248,0.18012 0.0278,0.35534 0.007,0.38938 -0.021,0.034 -0.27494,0.0612 -0.56423,0.0604 -0.55024,-0.001 -1.27494,0.12014 -1.33966,0.22485 -0.12125,0.19619 0.61162,0.86917 1.06923,0.98185 0.1873,0.0461 0.35332,0.24518 0.27216,0.32633 -0.0861,0.0861 -0.46777,0.0322 -0.75394,-0.10645 z m 0.39477,-1.80391 c 0.54706,-0.0539 0.57475,-0.13861 0.18349,-0.56124 -0.32893,-0.3553 -0.46079,-0.39947 -0.77333,-0.25909 -0.22923,0.10296 -0.3213,0.26571 -0.39748,0.70264 l -0.046,0.26395 0.29705,-0.0515 c 0.16338,-0.0283 0.49471,-0.071 0.73629,-0.0948 z m 11.384764,1.77098 c -0.41376,-0.24086 -0.61142,-0.65506 -0.59935,-1.25592 0.005,-0.25122 0.0316,-0.45678 0.059,-0.4568 0.0765,-5e-5 0.24036,-0.43354 0.29062,-0.76869 0.0519,-0.3457 0.25706,-0.72016 0.39466,-0.72016 0.0518,0 0.13197,0.0455 0.1781,0.10107 0.0676,0.0815 0.0602,0.15041 -0.0379,0.35529 -0.12172,0.25411 -0.16409,0.44394 -0.29938,1.34117 -0.0649,0.43019 -0.058,0.50957 0.0683,0.79517 0.0772,0.1745 0.17698,0.31727 0.22177,0.31727 0.0742,0 0.48446,-0.43726 0.71772,-0.76494 0.12565,-0.1765 0.27195,-0.87361 0.27492,-1.30996 0.002,-0.26193 0.0477,-0.41838 0.18358,-0.62598 0.0997,-0.15222 0.19863,-0.27567 0.21994,-0.27433 0.0213,0.001 0.11827,0.0699 0.21548,0.15226 0.23931,0.20286 0.27592,0.47185 0.16024,1.17752 -0.1559,0.95114 -0.12431,1.4026 0.10226,1.46185 0.0672,0.0176 0.1755,0.11331 0.24066,0.21275 0.18124,0.27661 0.0642,0.34189 -0.45503,0.25372 -0.86135,-0.14628 -0.90273,-0.1454 -1.18038,0.0252 -0.32182,0.19776 -0.3897,0.19627 -0.75524,-0.0165 z m 23.027959,0.13773 c -0.11167,-0.0133 -0.3814,-0.0566 -0.59941,-0.0962 -0.21801,-0.0396 -0.6613,-0.0721 -0.98509,-0.0721 -0.3238,0 -0.61967,-0.0207 -0.6575,-0.0459 -0.23101,-0.15423 -0.11375,-0.37733 0.56748,-1.07977 0.10038,-0.1035 0.14059,-0.2084 0.11738,-0.30621 -0.028,-0.11796 0.0103,-0.16979 0.18473,-0.25028 0.14952,-0.069 0.29082,-0.22851 0.44093,-0.49785 0.1215,-0.21799 0.2209,-0.40623 0.2209,-0.41831 0,-0.0121 -0.24521,-0.0434 -0.54491,-0.0695 -0.50402,-0.044 -0.54338,-0.0583 -0.52447,-0.19076 0.0191,-0.1341 0.0635,-0.14389 0.69718,-0.15376 0.3722,-0.006 0.72419,-0.0297 0.7822,-0.053 0.13435,-0.0541 0.40215,0.1739 0.40189,0.3422 0,0.0701 -0.0839,0.1843 -0.1861,0.25383 -0.19382,0.13181 -0.69346,0.91252 -0.69346,1.08355 0,0.0541 0.0381,0.11223 0.0846,0.12916 0.12322,0.0448 -0.0285,0.27961 -0.19714,0.30498 -0.13925,0.021 -0.39326,0.38094 -0.33514,0.47498 0.0186,0.0301 0.13375,0.0478 0.25586,0.0394 0.12211,-0.008 0.26851,0.009 0.32535,0.0377 0.0568,0.0292 0.21753,0.0737 0.35711,0.0989 l 0.25378,0.0458 v -0.3076 c 0,-0.27876 0.0151,-0.3076 0.1609,-0.3076 0.22639,0 0.29932,0.11826 0.31297,0.50756 0.0222,0.63237 0.0574,0.5899 -0.44004,0.53084 z m -89.300031,-0.16805 c -0.09183,-0.17159 -0.02837,-2.67062 0.07471,-2.94173 0.04755,-0.12506 0.03643,-0.22509 -0.04186,-0.37648 -0.08774,-0.16968 -0.09215,-0.24107 -0.02493,-0.40336 0.04492,-0.10845 0.06455,-0.30271 0.04362,-0.43169 -0.02106,-0.12977 -0.0072,-0.25357 0.03106,-0.27721 0.03801,-0.0235 0.05372,-0.10156 0.03491,-0.17348 -0.01881,-0.0719 -0.0053,-0.33421 0.02983,-0.58286 0.04573,-0.32291 0.04144,-0.50661 -0.01501,-0.64289 -0.08992,-0.21711 0.0058,-0.52307 0.16352,-0.52307 0.105936,0 0.385456,0.27942 0.385456,0.38531 0,0.0655 0.472193,0.75744 1.233258,1.80722 0.159169,0.21955 0.338477,0.49802 0.398463,0.61882 0.115458,0.2325 0.222112,0.37583 0.415408,0.5583 0.06514,0.0615 0.118429,0.15252 0.118429,0.20231 0,0.0498 0.148321,0.24857 0.329605,0.44176 0.181284,0.19317 0.381477,0.45303 0.444873,0.57746 0.06339,0.12442 0.12877,0.21271 0.145282,0.1962 0.03062,-0.0306 0.09041,-0.89583 0.125068,-1.80974 0.01058,-0.27916 0.02386,-0.52278 0.02951,-0.54139 0.0056,-0.0186 0.02381,-0.44134 0.04037,-0.9394 0.03697,-1.11186 0.09022,-1.49685 0.207047,-1.49685 0.04854,0 0.246515,0.0795 0.439927,0.17663 l 0.351666,0.17663 -0.04595,0.55086 c -0.02527,0.30297 -0.05561,0.6879 -0.06744,0.85539 -0.01182,0.16749 -0.05431,0.52229 -0.09443,0.78844 -0.04012,0.26616 -0.09001,0.78016 -0.110863,1.14224 -0.02086,0.36207 -0.05234,0.68165 -0.06996,0.71017 -0.01763,0.0285 -0.04504,0.30629 -0.06093,0.61728 -0.01588,0.31099 -0.05064,0.75739 -0.07723,0.992 l -0.04835,0.42657 -0.21079,-0.0205 c -0.17834,-0.0174 -0.214302,-0.0518 -0.233603,-0.22355 -0.01255,-0.11166 -0.0807,-0.25716 -0.151447,-0.32333 -0.07075,-0.0662 -0.14899,-0.20139 -0.17386,-0.30051 -0.06897,-0.27479 -0.488394,-0.94438 -0.833713,-1.33097 -0.307191,-0.34392 -0.882215,-1.14069 -0.882215,-1.22243 0,-0.0235 -0.05732,-0.12526 -0.127375,-0.2261 -0.07006,-0.10085 -0.317437,-0.47267 -0.549741,-0.82627 -0.232296,-0.35359 -0.452581,-0.6429 -0.489517,-0.6429 -0.07497,0 -0.08051,0.0468 -0.180148,1.52266 -0.123112,1.82355 -0.168129,2.73065 -0.152279,3.06852 0.0085,0.18025 -0.003,0.38581 -0.02559,0.45679 -0.05488,0.17293 -0.279053,0.16406 -0.374784,-0.0148 z m 25.636938,0.0765 c -0.10183,-0.0307 -0.29217,-0.1219 -0.42296,-0.20273 -0.20846,-0.12883 -0.24289,-0.13377 -0.27889,-0.0399 -0.0512,0.13339 -0.25408,0.13913 -0.36106,0.0102 -0.12032,-0.14498 0.0369,-1.14368 0.2038,-1.29474 0.25729,-0.23284 0.47731,0.0386 0.33973,0.41907 -0.11221,0.31031 -0.0535,0.44665 0.24715,0.57432 0.40567,0.17224 0.73518,0.0973 0.94124,-0.21409 0.0939,-0.14194 0.16053,-0.31053 0.148,-0.37464 -0.0125,-0.0641 -0.1733,-0.22024 -0.35726,-0.34696 -0.65444,-0.45082 -0.78652,-0.58488 -0.84896,-0.86172 -0.0577,-0.25607 -0.0484,-0.27862 0.23126,-0.5583 0.3203,-0.32029 0.38854,-0.33322 0.88449,-0.16759 0.28568,0.0954 0.33837,0.13935 0.33837,0.28218 0,0.10622 -0.0339,0.16207 -0.0912,0.15007 -0.66275,-0.13894 -0.87712,-0.0687 -0.78311,0.25657 0.0477,0.16505 0.12148,0.23564 0.31613,0.30244 0.39212,0.13459 0.68413,0.39378 0.77366,0.68672 0.0744,0.24328 0.0633,0.29673 -0.15262,0.74048 -0.18299,0.376 -0.28382,0.50262 -0.47156,0.59215 -0.25944,0.12371 -0.37302,0.13176 -0.65622,0.0465 z m 58.381744,-0.097 c -0.21144,-0.099 -0.37226,-0.22792 -0.42296,-0.33918 -0.17994,-0.39492 -0.0246,-1.20466 0.26143,-1.36313 0.18845,-0.10439 0.78687,-0.12088 1.168979,-0.0322 l 0.26025,0.0604 -0.0446,-0.23801 c -0.0246,-0.1309 -0.0938,-0.34107 -0.15386,-0.46703 -0.11018,-0.23104 -0.539579,-0.56943 -0.722579,-0.56943 -0.17558,0 -0.17806,0.11753 -0.005,0.23102 0.21065,0.13802 0.21479,0.31107 0.012,0.5016 -0.19635,0.18447 -0.26216,0.18386 -0.55459,-0.005 -0.26725,-0.1727 -0.33249,-0.31117 -0.27175,-0.57674 0.0726,-0.31759 0.26769,-0.48531 0.64835,-0.5575 0.720779,-0.1367 0.849729,-0.1059 1.242939,0.29685 0.47184,0.48329 0.59354,0.88403 0.46496,1.53105 -0.0722,0.36333 0.009,0.88653 0.15007,0.9654 0.0555,0.031 0.10082,0.0973 0.10082,0.14734 0,0.05 0.0457,0.10843 0.10151,0.12985 0.0558,0.0214 0.10152,0.0856 0.10152,0.14259 0,0.0758 -0.0727,0.10364 -0.2707,0.10364 -0.15279,0 -0.27069,-0.0326 -0.27069,-0.0749 0,-0.0446 -0.0479,-0.0554 -0.11843,-0.0266 -0.18139,0.074 -1.120399,0.30314 -1.235049,0.30136 -0.0558,-8.8e-4 -0.25503,-0.0734 -0.44267,-0.16123 z m 0.976829,-0.36443 c 0.46346,-0.14542 0.52842,-0.24423 0.41854,-0.63667 -0.0809,-0.289 -0.10018,-0.30636 -0.42239,-0.38074 -0.482339,-0.11134 -0.566559,-0.0992 -0.654789,0.0944 -0.0842,0.18469 -0.10261,0.64448 -0.0359,0.89349 0.049,0.18294 0.1868,0.18879 0.694519,0.0295 z m -50.736333,0.27244 c -0.0995,-0.1038 -0.21135,-0.2418 -0.24857,-0.30665 -0.0625,-0.10894 -0.0875,-0.10438 -0.32727,0.0598 -0.4264,0.29188 -0.59766,0.31228 -1.06943,0.1274 -0.69997,-0.27432 -0.97745,-0.73717 -0.67355,-1.12352 0.15244,-0.1938 0.66723,-0.4832 1.07206,-0.60269 0.15819,-0.0467 0.28762,-0.10897 0.28762,-0.13841 0,-0.0294 -0.108,-0.13589 -0.23999,-0.23656 l -0.23998,-0.18305 -0.19716,0.14577 c -0.32279,0.23865 -0.59921,0.15444 -0.74412,-0.22671 -0.10125,-0.2663 -0.0517,-0.34696 0.24848,-0.4047 0.88325,-0.16988 1.3441,-0.0569 1.87873,0.46063 l 0.29205,0.2827 0.0332,0.84126 c 0.0362,0.91681 0.0293,0.90127 0.51711,1.16846 0.28997,0.15882 0.21856,0.32503 -0.13963,0.32503 -0.20562,0 -0.3111,-0.0443 -0.44955,-0.18872 z m -1.03673,-0.44905 c 0.22476,-0.11624 0.51008,-0.6357 0.44389,-0.80819 -0.0706,-0.18402 -0.34671,-0.26285 -0.61291,-0.175 -0.12491,0.0412 -0.22711,0.0863 -0.22711,0.10025 0,0.0139 -0.0453,0.19921 -0.10067,0.41179 -0.14165,0.54381 0.0341,0.71044 0.4968,0.47115 z m 22.75854,0.57787 c -0.0502,-0.0318 -0.0803,-0.11494 -0.0668,-0.18473 0.0177,-0.0918 0.13531,-0.15509 0.42491,-0.22875 0.43588,-0.11085 0.46118,-0.14699 0.53864,-0.76935 0.0192,-0.15396 0.0849,-0.6606 0.14615,-1.12585 0.19427,-1.47671 0.10245,-2.29399 -0.24925,-2.21869 -0.0496,0.0106 -0.10057,-0.0492 -0.11334,-0.13297 -0.0191,-0.12507 0.008,-0.15227 0.15402,-0.15227 0.34297,0 0.56076,-0.18082 0.77483,-0.64331 0.20675,-0.44667 0.32259,-0.52579 0.4844,-0.33082 0.12459,0.15012 0.0981,1.69479 -0.039,2.26899 -0.0996,0.41754 -0.29226,1.68001 -0.28771,1.8858 0.001,0.0558 -0.0203,0.3202 -0.0479,0.58749 -0.0485,0.46994 -0.0455,0.48476 0.0904,0.44921 0.10815,-0.0283 0.15706,0.007 0.21218,0.15169 0.12484,0.32835 0.0695,0.35606 -0.71877,0.35972 -0.40629,0.002 -0.75689,0.0343 -0.79616,0.0735 -0.0845,0.0845 -0.37996,0.0905 -0.50657,0.0103 z m 4.47574,-0.043 c -0.38879,-0.16347 -0.97556,-0.64554 -1.07477,-0.88296 -0.0524,-0.12536 -0.0939,-0.43445 -0.0923,-0.68689 0.004,-0.63779 0.25274,-1.14184 0.66747,-1.35267 0.16152,-0.0821 0.34563,-0.19631 0.40913,-0.25377 0.14774,-0.1337 0.23933,-0.13137 0.61236,0.0156 0.77966,0.30723 0.87793,0.44307 1.05286,1.45561 0.102854,0.59525 0.103934,0.67384 0.0107,0.77824 -0.057,0.0639 -0.14457,0.21094 -0.19451,0.32683 -0.0499,0.11587 -0.20339,0.30795 -0.341,0.42683 -0.28945,0.25004 -0.70432,0.31846 -1.0499,0.17316 z m 0.28415,-0.52308 c 0.0564,-0.12096 0.19517,-0.36842 0.30845,-0.54989 0.18639,-0.29857 0.20771,-0.39072 0.2241,-0.96877 0.0162,-0.5719 0.005,-0.64612 -0.11224,-0.70857 -0.098,-0.0525 -0.18714,-0.0392 -0.3595,0.0536 -0.12604,0.0679 -0.22915,0.15049 -0.22915,0.18358 0,0.0331 -0.0615,0.0441 -0.1367,0.0244 -0.16856,-0.0441 -0.27955,0.15002 -0.43878,0.76737 -0.062,0.24029 -0.15735,0.48668 -0.21193,0.54753 -0.088,0.0982 -0.0817,0.13009 0.0565,0.28307 0.12344,0.13669 0.70915,0.57584 0.78078,0.58542 0.009,0.001 0.0621,-0.0968 0.11849,-0.21781 z m 2.851154,0.5776 c -0.0929,-0.0929 -0.31255,-0.64674 -0.31296,-0.78922 0,-0.079 -0.0406,-0.22063 -0.0897,-0.31471 -0.0491,-0.0941 -0.1271,-0.32247 -0.17333,-0.50755 -0.0462,-0.18508 -0.16181,-0.51053 -0.25685,-0.72323 -0.17654,-0.39513 -0.17328,-0.59455 0.01,-0.59455 0.12146,0 0.37625,0.39653 0.50007,0.77825 0.15812,0.48747 0.36367,0.98127 0.40845,0.98127 0.0241,0 0.13017,-0.15988 0.23559,-0.35529 0.45634,-0.8458 0.70172,-1.31588 0.72791,-1.39446 0.0487,-0.14599 0.41633,-0.15576 0.59719,-0.0159 0.15961,0.12346 0.1621,0.13808 0.072,0.42227 -0.0513,0.16192 -0.20186,0.46073 -0.33452,0.66404 -0.30797,0.47202 -0.37785,0.59254 -0.51105,0.88139 -0.0598,0.12976 -0.1668,0.29767 -0.23769,0.37313 -0.0709,0.0755 -0.17643,0.25098 -0.23453,0.39004 -0.10009,0.23954 -0.27563,0.32919 -0.40035,0.20447 z m -40.070844,-0.15855 c -0.14888,-0.0308 -0.40906,-0.0394 -0.57816,-0.0192 -0.28053,0.0336 -0.31434,0.0217 -0.38604,-0.13566 -0.087,-0.19093 -0.0788,-0.19662 0.40098,-0.27738 0.2719,-0.0458 0.27634,-0.0553 0.36419,-0.78201 0.0247,-0.20471 0.0692,-0.40266 0.0988,-0.43988 0.0887,-0.11143 0.20655,-0.86814 0.14486,-0.92982 -0.0314,-0.0315 -0.0962,-0.0102 -0.14381,0.0472 -0.11302,0.13618 -0.38251,0.13417 -0.43524,-0.003 -0.0508,-0.13247 0.004,-0.23076 0.12849,-0.23076 0.0515,0 0.13347,-0.0533 0.18211,-0.11842 0.12229,-0.16379 0.41724,-0.30615 0.57017,-0.2752 0.1101,0.0223 0.12605,0.085 0.11795,0.46375 -0.005,0.24089 -0.0889,0.76176 -0.18611,1.15749 -0.2185,0.88957 -0.22814,1.14096 -0.0438,1.14096 0.15059,0 0.3023,0.23227 0.24658,0.37749 -0.0404,0.10537 -0.0809,0.10744 -0.48105,0.0247 z m 54.979444,-0.11861 c -0.5159,-0.15623 -0.81911,-0.4229 -1.18762,-1.0445 -0.0995,-0.16781 0.0499,-0.68815 0.26334,-0.91728 0.27029,-0.29014 0.70996,-0.44989 1.23347,-0.44815 0.26097,8.7e-4 0.5396,0.0373 0.61916,0.081 0.18117,0.0995 0.23568,0.48226 0.12245,0.8598 l -0.0816,0.27196 -0.5161,-0.0215 c -0.42815,-0.0178 -0.52335,-0.003 -0.55856,0.0891 -0.0233,0.0608 -0.008,0.14512 0.0342,0.18728 0.0422,0.0422 0.0767,0.14453 0.0767,0.22748 0,0.28014 0.18607,0.38384 0.61841,0.34464 0.45289,-0.0411 0.62437,0.0443 0.58922,0.29335 -0.0215,0.1527 -0.0545,0.16638 -0.42939,0.17824 -0.22523,0.007 -0.5742,-0.0381 -0.78368,-0.10151 z m 0.68218,-1.80891 c 0,-0.19105 -0.0298,-0.23906 -0.1705,-0.27436 -0.0938,-0.0235 -0.26127,-0.005 -0.37221,0.0408 -0.15648,0.0648 -0.2017,0.1264 -0.2017,0.27466 0,0.17996 0.0187,0.1923 0.32145,0.21177 0.41417,0.0266 0.42296,0.0214 0.42296,-0.25282 z m -59.615304,1.76852 c -0.10725,-0.12921 -0.0477,-0.31239 0.11537,-0.35504 0.18973,-0.0496 0.66102,-0.75092 0.63727,-0.9483 -0.0145,-0.12018 0.0452,-0.23144 0.20578,-0.38355 0.25302,-0.23973 0.66051,-0.80818 0.66051,-0.92141 0,-0.044 -0.0655,-0.0572 -0.16288,-0.0328 -0.0896,0.0225 -0.22939,0.005 -0.31067,-0.0382 -0.11368,-0.0608 -0.19439,-0.0598 -0.34974,0.005 -0.18255,0.0756 -0.21777,0.0678 -0.36667,-0.0811 -0.14786,-0.14787 -0.156,-0.18356 -0.0795,-0.34878 0.10472,-0.22625 0.29405,-0.29646 0.44533,-0.16514 0.069,0.0599 0.33286,0.11459 0.67246,0.13937 0.83131,0.0607 1.02397,0.22944 0.65807,0.5765 -0.0924,0.0877 -0.16801,0.18656 -0.16801,0.21979 0,0.0332 -0.11027,0.2139 -0.24504,0.40149 -0.23925,0.33302 -0.24212,0.3443 -0.12127,0.47783 0.16401,0.18124 0.052,0.37408 -0.20114,0.34622 -0.0973,-0.0107 -0.17696,0.01 -0.17696,0.0459 0,0.036 -0.10659,0.17843 -0.23686,0.31656 -0.27899,0.29582 -0.28469,0.31376 -0.0846,0.26651 0.0838,-0.0198 0.44091,-0.0452 0.79369,-0.0565 l 0.64143,-0.0206 0.0602,-0.25444 c 0.067,-0.2832 0.19591,-0.371 0.35315,-0.24051 0.082,0.068 0.0945,0.16684 0.0591,0.46436 -0.0248,0.20788 -0.0703,0.40523 -0.10129,0.43856 -0.031,0.0333 -0.43099,0.0712 -0.88897,0.0841 -0.86559,0.0244 -1.25309,0.0565 -1.54738,0.12843 -0.11612,0.0284 -0.20235,0.007 -0.26135,-0.0638 z m 27.02119,-0.0155 c -0.0246,-0.0694 -0.11632,-0.3003 -0.20384,-0.5132 -0.0875,-0.21289 -0.15915,-0.49377 -0.15915,-0.62417 0,-0.24025 0.25238,-0.84977 0.35186,-0.84977 0.0298,0 0.0542,-0.0311 0.0542,-0.0691 0,-0.15967 0.36088,-0.59883 0.52943,-0.64426 0.37338,-0.10065 0.85687,-0.0845 1.14098,0.0382 0.36078,0.15574 0.57886,0.49586 0.72229,1.12649 0.10624,0.46708 0.10525,0.49244 -0.031,0.80044 -0.0894,0.20202 -0.21641,0.35886 -0.34821,0.42985 -0.11413,0.0615 -0.2712,0.17268 -0.34905,0.24712 -0.11784,0.11268 -0.22658,0.13393 -0.64923,0.12687 -0.27922,-0.005 -0.55335,-0.0145 -0.60918,-0.0218 -0.0558,-0.007 -0.16966,0.008 -0.25295,0.0331 -0.11291,0.0346 -0.16282,0.0143 -0.19615,-0.0797 z m 1.33202,-0.36466 c 0.0713,-0.0382 0.20199,-0.17589 0.29046,-0.30609 l 0.16087,-0.23673 -0.15214,-0.58769 c -0.15623,-0.60348 -0.36267,-0.89801 -0.62944,-0.89801 -0.18584,0 -0.41497,0.19603 -0.41892,0.35841 -0.002,0.082 -0.0205,0.34081 -0.041,0.57507 -0.0365,0.41635 0.067,0.84638 0.25995,1.07981 0.0847,0.10242 0.35292,0.11013 0.53023,0.0152 z m 33.479044,0.28923 c -0.53518,-0.53679 -0.54832,-0.5708 -0.49806,-1.28975 0.0252,-0.36069 0.0736,-0.77761 0.10759,-0.92649 0.0468,-0.2052 0.038,-0.30696 -0.0364,-0.42058 -0.13738,-0.20968 -0.12319,-0.28115 0.0652,-0.32843 0.20859,-0.0523 0.28977,-0.28302 0.49559,-1.40814 l 0.0356,-0.19461 -0.2615,0.17769 c -0.14382,0.0977 -0.33056,0.17769 -0.41497,0.17769 -0.22777,0 -0.20015,-0.24308 0.0418,-0.36821 0.10742,-0.0556 0.36376,-0.28714 0.56965,-0.51466 0.34224,-0.37819 0.38724,-0.40676 0.52477,-0.33316 0.14395,0.077 0.14853,0.10714 0.10661,0.69903 -0.0241,0.34018 -0.0626,0.70987 -0.0856,0.82154 -0.023,0.11166 -0.0558,0.39335 -0.073,0.62598 -0.0303,0.41111 -0.0266,0.42296 0.13294,0.42296 0.11064,0 0.18996,0.0568 0.24349,0.17425 0.10134,0.2224 0.0513,0.29946 -0.1944,0.29946 -0.22301,0 -0.2739,0.12309 -0.40562,0.98127 -0.04,0.26055 -0.0904,0.58647 -0.11203,0.72427 -0.0216,0.1378 -0.0218,0.29612 -6.8e-4,0.35183 0.0634,0.1653 0.41971,-0.0522 0.51733,-0.31585 0.2017,-0.54472 0.27657,-0.66795 0.39244,-0.64592 0.18751,0.0356 0.20178,0.66476 0.0188,0.83032 -0.0761,0.0689 -0.13842,0.16769 -0.13842,0.21954 0,0.0519 -0.0837,0.16798 -0.18611,0.25807 -0.2622,0.23077 -0.60446,0.22345 -0.84528,-0.0181 z m -30.233874,-0.0877 c -0.65058,-0.2237 -0.97675,-0.44177 -1.13515,-0.75893 -0.21278,-0.42605 -0.19572,-0.78421 0.0588,-1.23525 0.11522,-0.20415 0.29032,-0.42554 0.38913,-0.49198 0.8613,-0.57921 1.93462,-0.64111 2.24653,-0.12956 0.15846,0.25989 0.16727,0.40794 0.031,0.52104 -0.0558,0.0463 -0.10151,0.13871 -0.10151,0.20529 0,0.14893 -0.37061,0.47144 -0.54175,0.47144 -0.21971,0 -0.33801,-0.18977 -0.33801,-0.54223 0,-0.18124 -0.0302,-0.3482 -0.0671,-0.37101 -0.0696,-0.043 -0.40661,0.25303 -0.40661,0.35723 0,0.0326 -0.0674,0.0568 -0.14968,0.0538 -0.1076,-0.004 -0.21222,0.0895 -0.3722,0.33223 -0.27028,0.41002 -0.27761,0.56781 -0.0396,0.8507 0.22511,0.26753 0.53242,0.40203 0.91857,0.40203 0.37226,0 0.58863,0.14268 0.48145,0.31749 -0.0956,0.15594 -0.5479,0.16416 -0.9739,0.0177 z m 24.362544,0.0658 c -0.13028,-0.0324 -0.52256,-0.0521 -0.87174,-0.0438 -0.54939,0.013 -0.64508,-0.001 -0.71058,-0.10733 -0.0608,-0.0983 -0.0499,-0.14157 0.0557,-0.21994 0.0722,-0.0536 0.19511,-0.0975 0.27303,-0.0975 0.21306,0 0.36504,-0.32278 0.46799,-0.99396 0.0503,-0.32801 0.099,-0.62683 0.10819,-0.66405 0.0431,-0.17444 -0.0202,-0.23061 -0.28165,-0.24988 -0.3625,-0.0267 -0.40035,-0.14871 -0.0916,-0.29522 0.23274,-0.11045 0.37825,-0.23601 0.80351,-0.69331 0.10599,-0.11399 0.2278,-0.19266 0.27069,-0.17483 0.13648,0.0567 0.45561,0.52323 0.42052,0.61468 -0.0565,0.14735 0.0617,0.0987 0.25786,-0.10599 0.1022,-0.10669 0.35193,-0.27801 0.55494,-0.38073 0.30279,-0.1532 0.43065,-0.18084 0.71162,-0.15384 0.1945,0.0187 0.42076,0.092 0.52358,0.16958 0.15238,0.11503 0.18036,0.18658 0.17664,0.45186 -0.007,0.53446 -0.45891,0.81453 -0.77336,0.47981 -0.20409,-0.21723 -0.12176,-0.40654 0.17679,-0.40654 0.14983,0 0.19494,-0.0313 0.19494,-0.13535 0,-0.0992 -0.0526,-0.14134 -0.19678,-0.15779 -0.29108,-0.0332 -0.64914,0.0497 -0.64914,0.15037 0,0.0484 -0.0629,0.14489 -0.1398,0.21448 -0.0769,0.0696 -0.28096,0.34077 -0.45348,0.60263 -0.17252,0.26187 -0.33144,0.49134 -0.35317,0.50995 -0.0974,0.0834 -0.51959,0.8 -0.5904,1.00201 -0.0868,0.24769 -0.0899,0.24481 0.32884,0.31414 0.30953,0.0513 0.44894,0.19645 0.32825,0.34186 -0.0927,0.11171 -0.18752,0.11675 -0.54139,0.0288 z M 80.556291,134.524 c -0.0842,-0.10734 -0.0818,-0.10973 0.0256,-0.0256 0.0651,0.0511 0.11843,0.10438 0.11843,0.11843 0,0.0557 -0.0556,0.0198 -0.14398,-0.0929 z m -58.26706,-1.61772 c -0.05108,-0.0615 -0.09288,-0.24084 -0.09288,-0.39841 0,-0.22369 0.03696,-0.31644 0.168582,-0.42302 0.147143,-0.11915 0.194488,-0.12599 0.372206,-0.0538 0.174402,0.0708 0.206608,0.1232 0.224392,0.36496 0.01676,0.22767 -0.01211,0.31516 -0.149186,0.45224 -0.196403,0.1964 -0.390424,0.21793 -0.523118,0.058 z m 17.070166,-0.35558 c -0.12574,-0.0796 -0.0543,-0.34661 0.16141,-0.60292 0.0931,-0.1106 0.1692,-0.22227 0.1692,-0.24816 0,-0.11342 0.38529,-0.44095 0.51872,-0.44095 0.21093,0 0.36104,0.069 0.36104,0.16603 0,0.27631 -0.47954,0.9104 -0.82564,1.09171 -0.21183,0.11097 -0.25726,0.11502 -0.38473,0.0343 z m 43.316944,-0.22278 c -0.10037,-0.10037 -0.10576,-0.30167 -0.01,-0.36106 0.0393,-0.0243 0.20485,-0.22741 0.36777,-0.45131 0.37684,-0.5179 0.52523,-0.62707 0.71457,-0.52573 0.13563,0.0726 0.13665,0.0826 0.026,0.25678 -0.0633,0.0997 -0.16599,0.24217 -0.22824,0.31661 -0.17774,0.21256 -0.47798,0.70051 -0.47798,0.77679 0,0.0959 -0.29353,0.0869 -0.39251,-0.0121 z m 15.26828,-0.51354 c -0.12436,-0.0246 -0.17326,-0.21027 -0.18789,-0.71359 -0.008,-0.27953 0.008,-0.32371 0.11064,-0.30393 0.0661,0.0127 0.1542,0.0915 0.19584,0.175 l 0.0757,0.15186 0.15629,-0.13554 c 0.0859,-0.0746 0.17958,-0.13555 0.20806,-0.13555 0.12614,0 0.26588,0.0896 0.26588,0.17042 0,0.14555 -0.69877,0.81617 -0.82453,0.79133 z m -23.983864,-0.80945 c -0.0196,-0.0651 -0.0939,-0.26733 -0.16523,-0.44931 -0.0713,-0.18199 -0.11345,-0.3571 -0.0936,-0.38913 0.0717,-0.11606 0.22484,-0.0537 0.39705,0.1617 0.15848,0.19823 0.18269,0.20821 0.24534,0.10112 0.16947,-0.28968 0.38256,-0.47785 0.4931,-0.43544 0.25504,0.0979 0.20195,0.25607 -0.2333,0.69523 -0.4463,0.4503 -0.58279,0.51731 -0.64331,0.31583 z"
       id="path889"
       inkscape:connector-curvature="0"
       sodipodi:nodetypes="ccccsscccccccccccsccscccccccccscccccccsccccccccccccccccccccccscccsssscccccccsssccccccccccsccccccccccscccccccccccccccccccccccccccccsccsccccccccsccccccccssccccccccccsccccccscccccccccscccccccccccccccccccccccccssccccccccccccccccccccccsccccscccccccccccccsscccccsccccccscccccccssccccccccccccsscccsccccccscccccccccccccccsccsscccccccccscccccccscccccccccccccccsccccccccscssscccccccccccccccccscccccccccscccccscccccccccsccccccccccccccccccccccccccccsccccccccccccscscccccccccccccccccccsccccscccccccccccccscccccsccscssccccsccccccccscccsccccccccccccccssscccccccccccccccscccccccccccccsccccccscsccccccscccccccccssscscccscccccccscccccccccccccsscsccccccccccscccsccccccccssscccccccccsccccccccssccccccccccc" />
  </g>
</svg>
