<?xml version="1.0" encoding="UTF-8" standalone="no"?>
<!-- Created with Inkscape (http://www.inkscape.org/) -->

<svg
   xmlns:dc="http://purl.org/dc/elements/1.1/"
   xmlns:cc="http://creativecommons.org/ns#"
   xmlns:rdf="http://www.w3.org/1999/02/22-rdf-syntax-ns#"
   xmlns:svg="http://www.w3.org/2000/svg"
   xmlns="http://www.w3.org/2000/svg"
   xmlns:sodipodi="http://sodipodi.sourceforge.net/DTD/sodipodi-0.dtd"
   xmlns:inkscape="http://www.inkscape.org/namespaces/inkscape"
   width="122.01232mm"
   height="14.249513mm"
   viewBox="0 0 122.01231 14.249513"
   version="1.1"
   id="svg8"
   inkscape:version="0.92.4 (5da689c313, 2019-01-14)"
   sodipodi:docname="obsah_01.svg"
   inkscape:export-filename="/home/janik/documents/na/rozpravky/strany/str12.png"
   inkscape:export-xdpi="96"
   inkscape:export-ydpi="96">
  <defs
     id="defs2" />
  <sodipodi:namedview
     id="base"
     pagecolor="#ffffff"
     bordercolor="#666666"
     borderopacity="1.0"
     inkscape:pageopacity="0.0"
     inkscape:pageshadow="2"
     inkscape:zoom="0.5166526"
     inkscape:cx="366.08437"
     inkscape:cy="431.23213"
     inkscape:document-units="mm"
     inkscape:current-layer="layer1"
     showgrid="false"
     inkscape:showpageshadow="false"
     borderlayer="true"
     objecttolerance="1"
     guidetolerance="1"
     inkscape:window-width="1278"
     inkscape:window-height="783"
     inkscape:window-x="0"
     inkscape:window-y="15"
     inkscape:window-maximized="0"
     gridtolerance="1"
     scale-x="1"
     fit-margin-top="0"
     fit-margin-left="0"
     fit-margin-right="0"
     fit-margin-bottom="0">
    <sodipodi:guide
       position="-12.751696,-175.2257"
       orientation="0,559.37008"
       id="guide1560"
       inkscape:locked="false" />
    <sodipodi:guide
       position="135.24831,34.774307"
       orientation="0,-559.37008"
       id="guide1564"
       inkscape:locked="false" />
    <sodipodi:guide
       position="-12.751696,34.774307"
       orientation="793.70079,0"
       id="guide1566"
       inkscape:locked="false" />
  </sodipodi:namedview>
  <metadata
     id="metadata5">
    <rdf:RDF>
      <cc:Work
         rdf:about="">
        <dc:format>image/svg+xml</dc:format>
        <dc:type
           rdf:resource="http://purl.org/dc/dcmitype/StillImage" />
        <dc:title></dc:title>
      </cc:Work>
    </rdf:RDF>
  </metadata>
  <g
     inkscape:label="Layer 1"
     inkscape:groupmode="layer"
     id="layer1"
     transform="translate(-12.751697,-107.52478)">
    <path
       style="fill:#000000;stroke-width:0.0676737"
       d="m 35.668097,121.6406 c -0.248,-0.19508 -0.51079,-0.76465 -0.51131,-1.10821 -6.8e-4,-0.38577 0.18711,-0.64526 0.63637,-0.87976 l 0.38895,-0.20302 -0.0475,-0.3722 c -0.0261,-0.20471 -0.0542,-0.68413 -0.0623,-1.06537 -0.0196,-0.91716 -0.0674,-0.97593 -0.77722,-0.95648 -0.56108,0.0154 -0.75472,-0.0268 -1.03776,-0.2262 -0.41599,-0.29302 -0.66699,-1.18958 -0.42325,-1.51183 0.0546,-0.0722 0.10033,-0.22604 0.10151,-0.34177 0.001,-0.14795 0.0842,-0.30365 0.2786,-0.52447 0.15204,-0.17273 0.31486,-0.31406 0.36181,-0.31406 0.0469,0 0.18902,-0.0519 0.3157,-0.11524 0.15323,-0.0767 0.36625,-0.11078 0.63638,-0.10192 0.31679,0.0104 0.48161,-0.0243 0.74987,-0.15773 0.18911,-0.0941 0.38705,-0.15432 0.43988,-0.13388 0.12666,0.049 0.34468,0.43497 0.29298,0.51863 -0.0223,0.0361 -0.0483,0.13232 -0.0578,0.21394 -0.01,0.0816 -0.0391,0.24559 -0.0658,0.36437 -0.0305,0.13586 -0.0164,0.27393 0.0382,0.37221 0.13886,0.2504 0.0712,0.84909 -0.14387,1.27285 -0.15132,0.29817 -0.20398,0.52928 -0.26476,1.1619 -0.0515,0.53631 -0.054,0.84715 -0.008,0.96875 0.0374,0.0985 0.0681,0.31233 0.0681,0.4752 0,0.33914 0.0916,0.44001 0.21708,0.23907 0.0474,-0.0759 0.14841,-0.13797 0.22448,-0.13797 0.16949,0 0.39544,0.3563 0.3389,0.53442 -0.0221,0.0697 -0.005,0.20515 0.0391,0.30095 0.0654,0.1436 0.0587,0.20575 -0.0384,0.35392 -0.0973,0.14857 -0.15475,0.17374 -0.33105,0.1452 l -0.21328,-0.0345 -0.004,0.38205 c -0.003,0.27826 -0.05,0.46477 -0.17451,0.68658 -0.15858,0.28253 -0.19281,0.30598 -0.4739,0.32462 -0.23103,0.0153 -0.34827,-0.0156 -0.49379,-0.13001 z m 0.48934,-0.54652 c 0.0806,-0.0806 0.11682,-0.87572 0.0432,-0.94936 -0.0209,-0.0209 -0.15482,0.008 -0.29758,0.0639 -0.19926,0.0783 -0.26889,0.14865 -0.29975,0.30298 -0.0792,0.39609 0.32045,0.81616 0.55415,0.58245 z m -0.36016,-4.61766 c 0.28402,-0.16645 0.28614,-0.17059 0.32532,-0.63801 0.0438,-0.52268 -0.0705,-1.08996 -0.26231,-1.30194 -0.14172,-0.1566 -0.63674,-0.18324 -0.63674,-0.0343 0,0.10826 -0.14383,0.17643 -0.37222,0.17643 -0.17583,0 -0.3928,0.29619 -0.58985,0.80517 -0.10799,0.27897 -0.10846,0.32348 -0.007,0.63476 0.12846,0.39274 0.28596,0.48479 0.87142,0.50929 0.30682,0.0128 0.44329,-0.018 0.67103,-0.15142 z m -20.909682,1.02943 c -0.07444,-0.0433 -0.241933,-0.0722 -0.372205,-0.0644 -0.278484,0.0168 -0.383737,-0.0399 -0.4162,-0.22415 -0.01913,-0.10855 0.02841,-0.14572 0.247016,-0.19319 0.574191,-0.12469 0.562003,-0.10876 0.535028,-0.69934 -0.01331,-0.29126 -0.04232,-0.66094 -0.06447,-0.82151 -0.02215,-0.16056 -0.05145,-0.90145 -0.06511,-1.64642 -0.01366,-0.74497 -0.04438,-1.44345 -0.06826,-1.55219 -0.02388,-0.10874 -0.0724,-0.49461 -0.107818,-0.8575 -0.148394,-1.52031 -0.135496,-1.46935 -0.377768,-1.4928 -0.231322,-0.0224 -0.738672,0.1268 -1.043488,0.30686 -0.154384,0.0912 -0.204821,0.095 -0.292499,0.0223 -0.199468,-0.16554 -0.125954,-0.33829 0.204192,-0.4798 0.170578,-0.0731 0.346834,-0.13295 0.391682,-0.13295 0.04485,0 0.186976,-0.0901 0.31584,-0.20027 0.128864,-0.11015 0.289102,-0.20151 0.356092,-0.20302 0.06698,-0.002 0.204023,-0.0452 0.304532,-0.0972 0.29725,-0.15362 1.073961,-0.18615 1.675803,-0.0702 0.29543,0.0569 0.596652,0.10345 0.669375,0.10339 0.07273,-6e-5 0.164088,0.0259 0.203021,0.0578 0.03894,0.0318 0.200639,0.0926 0.35934,0.13504 0.197878,0.0529 0.470427,0.23574 0.867388,0.58184 0.318364,0.27759 0.610802,0.5047 0.649857,0.5047 0.03945,0 0.05649,0.076 0.03834,0.1709 -0.01797,0.094 -0.0057,0.31477 0.02733,0.49063 0.08743,0.46585 0.01808,0.66059 -0.374675,1.05223 -0.270837,0.27007 -0.505706,0.41705 -1.025548,0.64183 -0.370845,0.16035 -0.709261,0.29872 -0.752031,0.3075 -0.04277,0.009 -0.121806,0.0525 -0.175633,0.0972 -0.05383,0.0447 -0.201553,0.10152 -0.328279,0.12633 -0.514584,0.10073 -0.515301,0.1025 -0.56852,1.39686 -0.02633,0.64035 -0.02193,1.37477 0.0098,1.63205 l 0.05765,0.46779 0.541389,0.012 c 0.585581,0.0129 0.746184,0.0556 0.80707,0.21425 0.07487,0.19509 -0.03916,0.22339 -0.790171,0.19608 -0.719487,-0.0262 -0.763651,-0.0198 -0.949246,0.13635 -0.217232,0.18278 -0.292255,0.19522 -0.4888,0.081 z m 1.273085,-4.82713 c 0.557361,-0.16674 0.926311,-0.37124 0.926311,-0.51343 0,-0.074 0.04887,-0.12688 0.118429,-0.1282 0.220968,-0.004 0.422852,-0.25516 0.580789,-0.72197 0.152259,-0.45004 0.153667,-0.47426 0.04281,-0.73528 -0.113888,-0.26817 -0.790165,-0.86075 -1.012724,-0.88739 -0.05583,-0.007 -0.309363,-0.0396 -0.56341,-0.0731 -0.555229,-0.0733 -0.971788,-0.0181 -0.931583,0.12329 0.0404,0.14214 0.0635,0.46118 0.107493,1.48463 0.04528,1.05357 0.136349,1.55649 0.281834,1.55649 0.05443,0 0.256957,-0.0473 0.45005,-0.10503 z m -0.630184,-2.66959 c 0,-0.0372 0.03045,-0.0677 0.06767,-0.0677 0.03722,0 0.06767,0.0305 0.06767,0.0677 0,0.0372 -0.03045,0.0677 -0.06767,0.0677 -0.03722,0 -0.06767,-0.0305 -0.06767,-0.0677 z m 11.60604,7.3146 c -0.07444,-0.031 -0.30284,-0.0789 -0.507553,-0.10636 -0.417269,-0.056 -0.54139,-0.12797 -0.54139,-0.31381 0,-0.13298 0.02185,-0.14155 0.406042,-0.1592 0.227364,-0.0105 0.236547,-0.0209 0.229137,-0.26007 -0.0043,-0.13705 0.01168,-0.24918 0.03539,-0.24918 0.144592,0 0.116142,-3.65792 -0.03412,-4.3867 -0.02734,-0.13259 -0.06192,-0.1506 -0.221787,-0.11549 -0.132018,0.029 -0.237041,0.003 -0.346638,-0.0857 -0.214999,-0.1741 -0.12163,-0.28459 0.240499,-0.28459 h 0.300539 v -0.26241 c 0,-0.1507 0.04322,-0.29828 0.10151,-0.34666 0.05583,-0.0463 0.101511,-0.14039 0.101511,-0.20901 0,-0.22212 0.225482,-0.60613 0.378458,-0.64452 0.181081,-0.0455 0.523133,0.1223 0.666373,0.32681 0.15456,0.22067 0.13518,0.57171 -0.0394,0.71349 -0.621526,0.50477 -0.611875,0.49079 -0.567969,0.82265 0.02258,0.17062 0.04481,0.56907 0.04939,0.88545 0.0046,0.31637 0.03321,0.64374 0.06359,0.72749 0.03602,0.0993 0.02928,0.15226 -0.01938,0.15226 -0.07395,0 -0.0383,2.08912 0.05089,2.98288 0.03563,0.35703 0.0504,0.38205 0.273189,0.46261 0.18328,0.0663 0.23088,0.11764 0.21464,0.23162 -0.0179,0.12554 -0.0692,0.14849 -0.35923,0.16065 -0.186101,0.008 -0.399273,-0.0112 -0.473714,-0.0422 z m 0.575221,-6.85041 c 0,-0.0688 -0.200972,-0.26117 -0.272916,-0.26117 -0.08574,0 -0.218478,0.53368 -0.165875,0.66692 0.03622,0.0917 0.07868,0.0701 0.241372,-0.12297 0.108579,-0.12887 0.197419,-0.25612 0.197419,-0.28278 z m -8.913285,6.73046 c -0.02786,-0.0726 8.13e-4,-0.1403 0.07886,-0.1861 0.394794,-0.23173 0.493354,-0.37193 0.537484,-0.76454 0.106546,-0.94772 0.122226,-1.48997 0.04715,-1.63025 -0.05863,-0.10955 -0.0571,-0.17631 0.0064,-0.278 0.113489,-0.18173 0.03343,-0.2406 -0.159203,-0.11708 -0.235024,0.15069 -0.468877,0.16414 -0.553212,0.0318 -0.09216,-0.14461 0.08486,-0.36033 0.349298,-0.42566 0.215351,-0.0532 0.543196,-0.3462 0.626137,-0.55957 0.03255,-0.0838 0.103446,-0.15227 0.157538,-0.15227 0.1519,0 0.324279,0.20672 0.275337,0.33018 -0.02392,0.0603 -0.0608,0.21295 -0.08196,0.33915 l -0.03848,0.22944 0.253113,-0.17199 c 0.139212,-0.0946 0.297887,-0.23592 0.352608,-0.31404 0.05471,-0.0781 0.127314,-0.14204 0.16132,-0.14204 0.03401,0 0.223086,-0.0738 0.420186,-0.16392 0.197093,-0.0902 0.441625,-0.18481 0.543393,-0.21036 0.221137,-0.0555 0.229901,-0.10554 0.04743,-0.27067 -0.114619,-0.10373 -0.130631,-0.17616 -0.09582,-0.43345 0.06378,-0.4714 0.09492,-0.5424 0.255651,-0.58274 0.327656,-0.0822 0.925215,0.3409 0.925215,0.65516 0,0.16329 0.0442,0.15909 0.298143,-0.0283 0.418393,-0.3088 0.771128,-0.397 0.911457,-0.22792 0.05749,0.0693 0.0465,0.11768 -0.04565,0.20108 -0.207204,0.18751 -0.722816,0.43427 -1.008196,0.48248 -0.159798,0.027 -0.422805,0.15893 -0.635673,0.31888 -0.199705,0.15005 -0.485566,0.33478 -0.635246,0.4105 -0.149681,0.0757 -0.36351,0.22446 -0.475171,0.33053 -0.111662,0.10607 -0.334586,0.30916 -0.495392,0.4513 l -0.292371,0.25844 -0.03359,1.02232 -0.03359,1.02231 0.204462,0.0449 c 0.211406,0.0464 0.343857,0.26768 0.229001,0.38254 -0.03449,0.0345 -0.34967,0.0718 -0.700382,0.0829 -0.350712,0.0111 -0.704172,0.056 -0.785475,0.0997 -0.221916,0.11926 -0.559066,0.10012 -0.610789,-0.0347 z m 3.569382,-4.76272 c 0.05549,-0.10368 0.05396,-0.16472 -0.0059,-0.23686 -0.134394,-0.16194 -0.267102,-0.11496 -0.267102,0.0946 0,0.30604 0.144944,0.38159 0.273009,0.1423 z m 8.337123,4.53651 c -0.15893,-0.0227 -0.3249,-0.0773 -0.36882,-0.1212 -0.0439,-0.0439 -0.12795,-0.0799 -0.18671,-0.0799 -0.11834,0 -0.88991,-0.76025 -1.00928,-0.99447 -0.12767,-0.25049 0.17196,-1.50895 0.35947,-1.50978 0.0402,-2e-4 0.18794,-0.10575 0.32823,-0.2346 0.67476,-0.61973 1.67858,-0.39974 2.16491,0.47445 0.1584,0.28473 0.18042,0.38544 0.14507,0.66328 -0.0229,0.18017 -0.0839,0.40857 -0.13558,0.50755 -0.0516,0.099 -0.0941,0.20735 -0.0943,0.2408 0,0.0334 -0.13746,0.22728 -0.30495,0.43074 -0.16749,0.20345 -0.30549,0.38925 -0.30666,0.41289 -0.007,0.13655 -0.32228,0.24871 -0.59136,0.21021 z m -0.0833,-0.74246 c 0.0398,-0.0744 0.11558,-0.13534 0.16831,-0.13534 0.0527,0 0.18583,-0.12943 0.29576,-0.28762 0.10992,-0.15818 0.26122,-0.35224 0.33619,-0.43122 0.075,-0.079 0.15104,-0.237 0.16902,-0.35114 0.018,-0.11414 0.0493,-0.23439 0.0696,-0.26721 0.0642,-0.10391 -0.21213,-0.47894 -0.43956,-0.59655 -0.17343,-0.0897 -0.24502,-0.0967 -0.34559,-0.0339 -0.0698,0.0436 -0.1847,0.0609 -0.25541,0.0384 -0.0844,-0.0268 -0.17017,0.009 -0.24954,0.10399 -0.0665,0.0796 -0.17427,0.2078 -0.23941,0.2848 -0.0651,0.077 -0.11843,0.19153 -0.11843,0.25451 0,0.063 -0.0598,0.16859 -0.1328,0.23469 -0.073,0.0661 -0.16776,0.22612 -0.21049,0.3556 -0.0751,0.2275 -0.0679,0.24542 0.21456,0.5332 0.16074,0.16379 0.3316,0.29779 0.37968,0.29779 0.0481,0 0.0874,0.0305 0.0874,0.0677 0,0.12061 0.19617,0.0716 0.27069,-0.0677 z m -7.308759,0.59455 c -0.130272,-0.0364 -0.367124,-0.0817 -0.526333,-0.1005 -0.337001,-0.0399 -0.488117,-0.24871 -0.489761,-0.67679 -0.0013,-0.33118 -0.172669,-0.82409 -0.35415,-1.01847 -0.13798,-0.14777 -0.138264,-0.15226 -0.0098,-0.15226 0.09449,0 0.199502,-0.12851 0.367083,-0.44926 0.22199,-0.42488 0.558863,-0.84485 0.661591,-0.82479 0.02577,0.005 0.16844,-0.0447 0.317058,-0.11058 0.320273,-0.14193 0.842058,-0.11178 1.194083,0.069 0.513054,0.26345 0.947499,0.58335 1.074015,0.79084 0.180229,0.2956 0.173854,0.78431 -0.01745,1.33689 -0.153626,0.44378 -0.192938,0.49159 -0.681786,0.82923 -0.412735,0.28507 -1.112095,0.42485 -1.534541,0.30671 z m 0.852458,-0.46349 c 0.07804,-0.0287 0.193648,-0.15364 0.25691,-0.2777 0.06326,-0.12406 0.200118,-0.37783 0.304125,-0.56393 0.104008,-0.1861 0.23945,-0.42973 0.300986,-0.54139 0.174422,-0.31652 0.143448,-0.53733 -0.104657,-0.7461 -0.11956,-0.1006 -0.227702,-0.15193 -0.240323,-0.11406 -0.01262,0.0379 -0.0949,-0.003 -0.182841,-0.0911 -0.264408,-0.26441 -0.485735,-0.28137 -0.723073,-0.0554 -0.244174,0.23246 -0.598933,0.74253 -0.598933,0.86114 0,0.0465 -0.02567,0.11351 -0.05706,0.14887 -0.121292,0.13666 -0.291593,0.84467 -0.249391,1.03682 0.04843,0.22051 0.203826,0.38502 0.407964,0.43189 0.161368,0.037 0.686786,-0.0157 0.886295,-0.0891 z M 132.44211,112.807 c -0.0513,-0.1337 0.14099,-0.28428 0.41984,-0.32876 0.45741,-0.073 0.45359,-0.0648 0.46495,-0.98764 0.006,-0.46121 0.0264,-0.88425 0.0461,-0.94008 0.0197,-0.0558 0.0491,-0.20809 0.0654,-0.33837 0.0163,-0.13027 0.0852,-0.56338 0.15313,-0.96246 0.12618,-0.74123 0.10488,-0.93476 -0.0747,-0.67842 -0.0556,0.0794 -0.40496,0.38875 -0.77638,0.68751 -0.56913,0.45779 -0.6993,0.53434 -0.82788,0.48687 -0.23742,-0.0876 -0.21573,-0.23964 0.0644,-0.45135 0.64246,-0.48557 1.15221,-0.96174 1.42227,-1.32859 0.33845,-0.45975 0.44745,-0.52224 0.6272,-0.35957 0.16373,0.14817 0.1541,0.31919 -0.15435,2.74136 -0.045,0.3536 -0.0819,0.97245 -0.0819,1.37524 v 0.73233 l 0.39298,0.0183 c 0.41408,0.0193 0.63812,0.15054 0.56819,0.33275 -0.0321,0.0838 -0.22579,0.0995 -1.15728,0.0942 -0.84434,-0.005 -1.12687,-0.0277 -1.15207,-0.0934 z M 31.706897,112.38216 c -0.0972,-0.18165 -0.10897,-0.1583 0.28523,-0.56703 0.1954,-0.20261 0.40594,-0.44061 0.46786,-0.52889 0.0846,-0.12056 0.13228,-0.1414 0.19179,-0.0837 0.11038,0.10693 -0.18943,0.72517 -0.51247,1.05678 -0.28236,0.28987 -0.33504,0.30483 -0.43241,0.12288 z"
       id="path889"
       inkscape:connector-curvature="0"
       sodipodi:nodetypes="ccsccccccccscccccccccccscscccccccccccccccccccsscccccccccccsscccccsccccscccscccccccccccccccccscccccccsccsssssccsccscccscscsccccccsccccccssccscccccccccscccccscccscscccccccccccccscccccsccccsccccccccccccscccccccccssccssccccccsccccccsccccccccccsccccccccccccccccccsccccccccccccc" />
  </g>
</svg>
