<?xml version="1.0" encoding="UTF-8" standalone="no"?>
<!-- Created with Inkscape (http://www.inkscape.org/) -->

<svg
   xmlns:dc="http://purl.org/dc/elements/1.1/"
   xmlns:cc="http://creativecommons.org/ns#"
   xmlns:rdf="http://www.w3.org/1999/02/22-rdf-syntax-ns#"
   xmlns:svg="http://www.w3.org/2000/svg"
   xmlns="http://www.w3.org/2000/svg"
   xmlns:sodipodi="http://sodipodi.sourceforge.net/DTD/sodipodi-0.dtd"
   xmlns:inkscape="http://www.inkscape.org/namespaces/inkscape"
   width="121.93341mm"
   height="9.5700989mm"
   viewBox="0 0 121.9334 9.5700989"
   version="1.1"
   id="svg8"
   inkscape:version="0.92.4 (5da689c313, 2019-01-14)"
   sodipodi:docname="obsah_03.svg"
   inkscape:export-filename="/home/janik/documents/na/rozpravky/strany/str12.png"
   inkscape:export-xdpi="96"
   inkscape:export-ydpi="96">
  <defs
     id="defs2" />
  <sodipodi:namedview
     id="base"
     pagecolor="#ffffff"
     bordercolor="#666666"
     borderopacity="1.0"
     inkscape:pageopacity="0.0"
     inkscape:pageshadow="2"
     inkscape:zoom="1.0333052"
     inkscape:cx="223.38867"
     inkscape:cy="53.958932"
     inkscape:document-units="mm"
     inkscape:current-layer="layer1"
     showgrid="false"
     inkscape:showpageshadow="false"
     borderlayer="true"
     objecttolerance="1"
     guidetolerance="1"
     inkscape:window-width="1278"
     inkscape:window-height="783"
     inkscape:window-x="0"
     inkscape:window-y="15"
     inkscape:window-maximized="0"
     gridtolerance="1"
     scale-x="1"
     fit-margin-top="0"
     fit-margin-left="0"
     fit-margin-right="0"
     fit-margin-bottom="0">
    <sodipodi:guide
       position="-13.943972,-147.09993"
       orientation="0,559.37008"
       id="guide1560"
       inkscape:locked="false" />
    <sodipodi:guide
       position="134.05603,62.900068"
       orientation="0,-559.37008"
       id="guide1564"
       inkscape:locked="false" />
    <sodipodi:guide
       position="-13.943972,62.900068"
       orientation="793.70079,0"
       id="guide1566"
       inkscape:locked="false" />
  </sodipodi:namedview>
  <metadata
     id="metadata5">
    <rdf:RDF>
      <cc:Work
         rdf:about="">
        <dc:format>image/svg+xml</dc:format>
        <dc:type
           rdf:resource="http://purl.org/dc/dcmitype/StillImage" />
        <dc:title></dc:title>
      </cc:Work>
    </rdf:RDF>
  </metadata>
  <g
     inkscape:label="Layer 1"
     inkscape:groupmode="layer"
     id="layer1"
     transform="translate(-13.943972,-140.32996)">
    <path
       style="fill:#000000;stroke-width:0.0676737"
       d="m 87.416891,149.85483 c -0.30801,-0.15019 -0.13258,-0.38815 0.28825,-0.391 0.0748,-6.8e-4 0.17461,-0.0628 0.22182,-0.13836 0.0954,-0.15279 0.27183,-1.0109 0.34854,-1.69536 0.0275,-0.24501 0.0678,-0.47443 0.0897,-0.50982 0.0219,-0.0354 0.061,-0.39831 0.087,-0.80648 0.0746,-1.17387 0.0806,-1.34394 0.0513,-1.46617 -0.0249,-0.10367 -0.0411,-0.10146 -0.16496,0.0224 -0.13113,0.13113 -0.14334,0.132 -0.26804,0.0191 -0.11816,-0.10693 -0.12098,-0.13171 -0.0296,-0.25928 0.0556,-0.0776 0.19814,-0.2857 0.31674,-0.4625 0.1186,-0.17679 0.25445,-0.32145 0.30191,-0.32145 0.0474,0 0.13401,-0.0682 0.19236,-0.15145 0.14574,-0.20807 0.33025,-0.0869 0.37531,0.24649 0.0323,0.23899 0.04,0.24562 0.16918,0.14532 0.0744,-0.0578 0.26724,-0.16535 0.42844,-0.23901 0.26308,-0.12022 0.31618,-0.12428 0.51854,-0.0397 0.30437,0.12717 0.91405,0.72422 0.91405,0.89511 0,0.0754 0.0585,0.30711 0.12991,0.51478 l 0.12991,0.37759 -0.15937,0.39433 c -0.10885,0.26937 -0.24966,0.4694 -0.44432,0.63119 -0.28084,0.23345 -0.29335,0.23668 -0.86722,0.22402 -0.32025,-0.007 -0.65568,-0.0223 -0.74541,-0.0338 -0.1844,-0.0237 -0.25029,0.12769 -0.31482,0.72342 -0.0202,0.1861 -0.0807,0.51593 -0.13463,0.73296 -0.0539,0.21702 -0.098,0.4541 -0.098,0.52685 0,0.0728 -0.0485,0.20635 -0.10787,0.29689 -0.15559,0.23746 -0.0915,0.33816 0.21513,0.33816 0.24926,0 0.26494,0.012 0.26494,0.20302 v 0.20303 l -0.49016,0.009 c -0.2696,0.005 -0.61981,0.0262 -0.77825,0.047 -0.15845,0.0208 -0.3566,0.004 -0.44035,-0.0364 z m 2.9035,-3.79526 c 0.43025,-0.73607 0.41438,-1.25814 -0.0523,-1.72214 l -0.22042,-0.21912 -0.2918,0.22506 c -0.25508,0.19674 -0.28937,0.25401 -0.27245,0.45511 0.0111,0.13178 -0.0188,0.25933 -0.0699,0.29859 -0.16526,0.12692 -0.36479,1.01202 -0.264,1.17112 0.0696,0.10985 0.37774,0.20405 0.68676,0.20995 0.22061,0.004 0.25383,-0.0245 0.48417,-0.41857 z m -58.692984,2.51414 c -0.13963,-0.13963 -0.14317,-0.18173 -0.0996,-1.18215 l 0.0452,-1.03737 -0.23274,-0.49278 c -0.25826,-0.54681 -0.57429,-1.91606 -0.467,-2.02335 0.14166,-0.14167 0.2722,0.0352 0.41992,0.56892 0.24909,0.90004 0.54665,1.53352 0.54665,1.16376 0,-0.0936 0.0593,-0.23394 0.21397,-0.50663 0.0317,-0.0558 0.0747,-0.14719 0.0956,-0.20302 0.19991,-0.5341 0.30056,-0.6708 0.5249,-0.71289 0.31739,-0.0595 0.52558,-0.0192 0.61198,0.11869 0.0589,0.094 0.0311,0.15957 -0.14535,0.34159 -0.12006,0.12387 -0.2183,0.27337 -0.2183,0.33223 0,0.12939 -0.39488,0.81989 -0.63684,1.11358 -0.14545,0.17656 -0.18648,0.32342 -0.24581,0.87976 -0.0392,0.3673 -0.0717,0.86577 -0.0724,1.1077 -0.002,0.70204 -0.0675,0.80461 -0.34017,0.53196 z m 49.560124,-1.19178 c -0.93146,-0.93376 -2.57269,-2.04795 -3.2639,-2.21578 -0.14826,-0.036 -0.18227,-0.011 -0.25378,0.18678 -0.11873,0.32835 -0.10379,0.44883 0.0866,0.69846 0.22332,0.29279 0.21348,0.36494 -0.0508,0.37194 -0.946304,0.0251 -1.128464,0.015 -1.228154,-0.0677 -0.1809,-0.15015 -0.12383,-0.26192 0.15806,-0.30954 0.29513,-0.0499 0.29371,-0.0469 0.40731,-0.84664 0.0344,-0.24194 0.0946,-0.59215 0.1338,-0.77825 0.0392,-0.1861 0.127914,-0.71078 0.197094,-1.16594 0.12242,-0.80553 0.12243,-0.83059 6.8e-4,-0.941 -0.0689,-0.0624 -0.12534,-0.13692 -0.12534,-0.16564 0,-0.0287 0.16532,-0.13309 0.36737,-0.23195 0.29648,-0.14505 0.3945,-0.23743 0.5079,-0.47869 0.14694,-0.3126 0.26755,-0.36973 0.41231,-0.1953 0.07,0.0844 0.0655,0.17568 -0.0241,0.49064 -0.22008,0.77307 -0.5331,2.02167 -0.61871,2.46794 -0.10172,0.5303 -0.069,0.557 0.34401,0.28072 0.39647,-0.26522 0.63319,-0.50603 0.78214,-0.7957 0.12347,-0.24012 0.15162,-0.25774 0.34885,-0.21829 0.73507,0.14701 0.51682,0.76852 -0.4324,1.23131 -0.22068,0.10759 -0.40129,0.21703 -0.40138,0.2432 0,0.0262 0.12927,0.1109 0.28746,0.18827 0.45532,0.22272 0.68576,0.35565 0.78017,0.45005 0.0482,0.0482 0.17785,0.14091 0.28815,0.20608 0.11031,0.0651 0.20056,0.13947 0.20056,0.16515 0,0.0548 0.90686,0.73622 0.97981,0.73622 0.0273,0 0.10954,0.0761 0.18274,0.16918 0.0732,0.093 0.16893,0.16919 0.21276,0.16919 0.12318,0 0.46821,0.46889 0.426,0.57891 -0.0771,0.20096 -0.37603,0.10614 -0.70499,-0.22363 z m 5.82036,-0.18898 c -0.0701,-0.0795 -0.0733,-0.2882 -0.0162,-1.04724 0.0711,-0.94514 0.0708,-0.94901 -0.0991,-1.28434 -0.21473,-0.42375 -0.39105,-0.48165 -0.75915,-0.24929 -0.26092,0.16471 -0.26798,0.17981 -0.35867,0.76683 -0.0509,0.32933 -0.0853,0.63727 -0.0764,0.68429 0.0235,0.1245 -0.1604,0.17371 -0.32331,0.0865 -0.17585,-0.0941 -0.18656,-0.4351 -0.0329,-1.04696 0.0923,-0.36735 0.0945,-0.45442 0.0153,-0.60557 l -0.0925,-0.17652 -0.21492,0.15178 c -0.27568,0.19469 -0.50983,0.7978 -0.55813,1.43758 l -0.0358,0.47372 h -0.43264 c -0.34411,0 -0.44797,-0.025 -0.50756,-0.12205 -0.0595,-0.0969 -0.0506,-0.1359 0.0435,-0.18946 0.094,-0.0535 0.11877,-0.16093 0.12005,-0.52086 8.8e-4,-0.24939 0.0279,-0.56654 0.06,-0.70477 0.0424,-0.18236 0.0332,-0.28452 -0.0333,-0.37221 -0.15963,-0.21043 -0.11378,-0.40336 0.13194,-0.55522 0.35882,-0.22177 0.78718,-0.14982 0.78718,0.13221 0,0.15648 0.0432,0.16151 0.27069,0.0315 0.25058,-0.14324 0.43859,-0.12233 0.6729,0.0748 0.15627,0.13149 0.23193,0.1578 0.29743,0.10344 0.16899,-0.14026 0.76629,-0.22898 0.93715,-0.13922 0.31702,0.16655 0.82083,0.63845 0.91034,0.85267 0.11859,0.28382 0.11785,0.7229 -0.002,0.95575 -0.12406,0.24183 -0.30048,0.76957 -0.34863,1.04284 -0.0541,0.30688 -0.1996,0.3968 -0.35574,0.2198 z m -43.896434,-0.36297 c -0.0252,-0.0407 -0.14836,-0.074 -0.27378,-0.074 -0.21412,0 -0.44072,-0.13962 -0.44072,-0.27153 0,-0.0911 0.15562,-0.1672 0.29494,-0.14424 0.0692,0.0114 0.19372,0.004 0.27677,-0.0172 0.14504,-0.0364 0.15051,-0.0654 0.13843,-0.73298 -0.008,-0.44857 0.0429,-1.05511 0.14397,-1.7102 0.17693,-1.1472 0.22938,-1.95766 0.12716,-1.96459 -0.19122,-0.013 -0.37203,-0.1215 -0.37067,-0.22245 8.8e-4,-0.0626 0.0998,-0.16119 0.21994,-0.21904 0.22979,-0.11064 0.515,-0.58046 0.52014,-0.85679 0.005,-0.27428 0.48085,-0.39943 0.60889,-0.16019 0.0382,0.0714 0.0554,0.21604 0.0382,0.32145 -0.0172,0.1054 -0.0452,0.52663 -0.0621,0.93605 -0.0169,0.40943 -0.0631,0.82905 -0.10254,0.9325 -0.0395,0.10344 -0.0708,0.25571 -0.0697,0.33837 0.003,0.21633 -0.0654,0.65881 -0.13815,0.89469 -0.0345,0.11166 -0.0993,0.69916 -0.14408,1.30555 -0.0883,1.19554 -0.0607,1.3497 0.21143,1.17977 0.22096,-0.138 0.26993,-0.0968 0.26993,0.22715 v 0.31005 l -0.25378,-0.0425 c -0.2877,-0.0482 -0.28858,-0.0482 -0.66882,0.005 -0.17079,0.0239 -0.29751,0.0103 -0.32544,-0.0349 z m 3.45194,-0.13441 c -0.0255,-0.0412 -0.11614,-0.075 -0.20145,-0.075 -0.20675,0 -0.78107,-0.30334 -0.96741,-0.51097 -0.0821,-0.0915 -0.16928,-0.27304 -0.19375,-0.40351 -0.0387,-0.20612 -0.0121,-0.2767 0.20248,-0.53862 0.29436,-0.35922 0.52925,-0.4448 1.31697,-0.47981 0.31206,-0.0139 0.57889,-0.0367 0.59296,-0.0508 0.0141,-0.0141 -0.10304,-0.17169 -0.26024,-0.35028 -0.45864,-0.52105 -1.00162,-0.68774 -1.00162,-0.30748 0,0.0641 -0.0587,0.16969 -0.13044,0.23461 -0.11534,0.10438 -0.15255,0.10722 -0.32145,0.0245 -0.16199,-0.0793 -0.18814,-0.12909 -0.17212,-0.32749 0.033,-0.40842 0.50961,-0.62976 1.00872,-0.46842 0.73303,0.23696 1.36362,0.97701 1.67303,1.96345 0.0648,0.20652 0.20189,0.54954 0.30471,0.76227 0.12967,0.26829 0.16442,0.40482 0.11344,0.44571 -0.0821,0.0659 -0.33995,-0.0122 -0.40891,-0.12375 -0.0663,-0.10732 -0.25528,-0.088 -0.44467,0.0455 -0.092,0.0649 -0.24346,0.12113 -0.33651,0.12505 -0.0931,0.004 -0.29479,0.0302 -0.4483,0.0585 -0.18359,0.0338 -0.29497,0.0258 -0.32544,-0.0235 z m 0.85342,-0.5656 c 0.39887,-0.15197 0.39957,-0.15273 0.35963,-0.38912 -0.0233,-0.13781 -0.11643,-0.30244 -0.22275,-0.39367 -0.16171,-0.13878 -0.23554,-0.15342 -0.64194,-0.12729 -0.39377,0.0253 -0.48753,0.0573 -0.65794,0.22448 -0.31461,0.30866 -0.24004,0.50807 0.27325,0.7307 0.31738,0.13767 0.42427,0.13225 0.88975,-0.0451 z m 48.142514,0.57427 c -0.0498,-0.0498 -0.0483,-0.8184 0.002,-1.0059 0.0213,-0.0792 0.11858,-0.18043 0.21627,-0.22494 0.24975,-0.1138 0.36487,0.0577 0.33847,0.5043 l -0.02,0.33837 0.59088,-0.005 c 0.59496,-0.005 0.93178,-0.10335 0.93178,-0.27249 0,-0.0469 -0.14466,-0.17898 -0.32145,-0.29356 -1.06343,-0.68919 -0.95713,-2.14258 0.16519,-2.25842 0.43935,-0.0453 0.66957,0.0409 0.80423,0.30132 0.24954,0.48257 0.0206,1.07297 -0.41603,1.07297 -0.24603,0 -0.25235,-0.0115 -0.23332,-0.42296 0.009,-0.19289 -0.0144,-0.25378 -0.0971,-0.25378 -0.27963,0 -0.19827,0.47115 0.1339,0.7754 0.28492,0.26098 0.43827,0.61547 0.43827,1.01314 0,0.37188 -0.14785,0.53222 -0.59782,0.64829 -0.32793,0.0846 -1.86764,0.15068 -1.93526,0.0831 z m -28.279214,-0.0674 c -0.12927,-0.0292 -0.24993,-0.27102 -0.24993,-0.50084 0,-0.0756 0.10747,-0.36392 0.23882,-0.64072 0.29744,-0.6268 0.46316,-1.2566 0.40801,-1.55059 -0.0757,-0.4037 -0.68555,-0.61822 -0.97136,-0.34171 -0.0482,0.0466 -0.14548,0.40211 -0.21614,0.7899 -0.0707,0.3878 -0.16424,0.80586 -0.20796,0.92904 -0.0703,0.19802 -0.0629,0.24162 0.0639,0.37656 0.18794,0.20006 0.18161,0.31307 -0.0175,0.31307 -0.0885,0 -0.19881,0.0457 -0.24514,0.10151 -0.11502,0.13859 -0.22199,0.12737 -0.32266,-0.0338 -0.0609,-0.0975 -0.15783,-0.13535 -0.34636,-0.13535 -0.15203,0 -0.29774,-0.0433 -0.34745,-0.10315 -0.0941,-0.11335 -0.0729,-0.15128 0.14603,-0.26222 0.10177,-0.0516 0.18566,-0.20998 0.27239,-0.51439 0.18116,-0.63577 0.40643,-1.703 0.36766,-1.74177 -0.0182,-0.0182 -0.11503,0.0312 -0.21505,0.10989 -0.20476,0.16106 -0.36851,0.18179 -0.48846,0.0618 -0.13299,-0.13299 -0.093,-0.25162 0.10121,-0.30036 0.10033,-0.0252 0.30308,-0.12806 0.45055,-0.22862 0.22199,-0.15137 0.30791,-0.17386 0.49927,-0.1307 0.12712,0.0287 0.29225,0.10744 0.36694,0.17503 0.0821,0.0743 0.24745,0.12532 0.41801,0.129 0.59929,0.013 1.17027,0.51856 1.10473,0.97825 -0.0537,0.37672 -0.28545,1.15157 -0.46552,1.55649 -0.11761,0.26445 -0.15712,0.45318 -0.13648,0.6519 0.0307,0.29604 -0.01,0.3565 -0.20745,0.31176 z m 25.236144,-0.0814 c -0.57348,-0.20911 -0.67472,-0.62814 -0.25538,-1.05709 0.47492,-0.48581 0.75921,-0.65303 1.04625,-0.61538 0.23729,0.0311 0.25318,0.0227 0.21317,-0.11254 -0.15357,-0.5192 -0.6475,-0.87011 -0.83252,-0.59145 -0.16969,0.25557 -0.55065,0.14213 -0.55065,-0.16396 0,-0.10845 0.0764,-0.16967 0.32145,-0.25749 0.41815,-0.14988 0.79294,-0.1433 1.15327,0.0202 0.24278,0.11019 0.31786,0.19383 0.45761,0.50982 0.0919,0.2079 0.19446,0.56665 0.22783,0.79721 0.0733,0.50622 0.13281,0.6675 0.40514,1.09691 0.12082,0.19053 0.1843,0.35566 0.14992,0.39003 -0.10061,0.10061 -0.68611,-0.0224 -0.77362,-0.16252 -0.10898,-0.1745 -0.29644,-0.15904 -0.56617,0.0467 -0.29132,0.2222 -0.58062,0.2511 -0.9963,0.0995 z m 1.00582,-0.68624 c 0.27247,-0.23922 0.29265,-0.3297 0.11032,-0.4947 -0.11241,-0.10174 -0.16429,-0.10604 -0.4058,-0.0337 -0.23348,0.07 -0.28749,0.12109 -0.34444,0.3261 -0.089,0.32047 -0.0878,0.32964 0.0501,0.36568 0.25683,0.0671 0.35973,0.0386 0.58979,-0.16339 z m -76.302436,0.57938 c -0.136599,-0.14541 -0.148909,-0.19243 -0.07947,-0.30362 0.09159,-0.14666 0.107845,-0.35585 0.03344,-0.43026 -0.02679,-0.0268 -0.05204,-0.10039 -0.05609,-0.16354 -0.0041,-0.0632 -0.01259,-0.17591 -0.01895,-0.25057 -0.01784,-0.20913 -0.343715,-0.31018 -1.038873,-0.32216 -0.950531,-0.0164 -0.988273,-0.002 -1.220407,0.46465 -0.109246,0.21961 -0.239666,0.44498 -0.289826,0.50081 -0.05016,0.0558 -0.111547,0.18305 -0.136417,0.28271 -0.05848,0.23433 -0.227559,0.29722 -0.382512,0.14227 -0.110531,-0.11054 -0.112494,-0.13938 -0.02143,-0.3149 0.05513,-0.10628 0.100245,-0.24335 0.100245,-0.30461 0,-0.0613 0.07685,-0.19427 0.170782,-0.29557 0.128322,-0.13839 0.15998,-0.22722 0.127328,-0.35732 -0.0277,-0.11035 -0.007,-0.2151 0.05699,-0.28884 0.05524,-0.0636 0.122015,-0.20707 0.148381,-0.31873 0.02637,-0.11166 0.101599,-0.26392 0.167174,-0.33837 0.302069,-0.3429 0.718979,-1.308 0.850111,-1.96789 0.03903,-0.1964 0.02575,-0.21307 -0.231025,-0.29 -0.258229,-0.0774 -0.4552,-0.27977 -0.362481,-0.37248 0.05819,-0.0582 0.792622,-0.0468 1.189359,0.0185 0.192146,0.0316 0.361648,0.10547 0.417892,0.18207 0.111831,0.15232 0.706716,1.68519 0.916708,2.36212 0.08082,0.26054 0.208861,0.57448 0.284541,0.69763 0.07567,0.12314 0.152408,0.33387 0.170524,0.46827 0.01811,0.1344 0.09204,0.35778 0.164298,0.4964 0.07225,0.13862 0.149863,0.36601 0.172466,0.50532 l 0.0411,0.25327 -0.315393,-0.0473 c -0.253316,-0.038 -0.323372,-0.0265 -0.355957,0.0584 -0.06167,0.16071 -0.321423,0.12644 -0.502504,-0.0663 z m -1.45537,-1.92085 c 0.02366,-0.0383 0.122956,-0.0385 0.255042,-6.8e-4 0.26882,0.0771 0.399511,-0.0232 0.195895,-0.1504 -0.07883,-0.0492 -0.143327,-0.11861 -0.143327,-0.15418 0,-0.0356 0.100421,0.0327 0.223161,0.15162 0.183748,0.1781 0.453577,0.29188 0.453577,0.19126 0,-0.0138 -0.09147,-0.34113 -0.203279,-0.72749 -0.111803,-0.38635 -0.23721,-0.82426 -0.278673,-0.97315 -0.04147,-0.14888 -0.08607,-0.30876 -0.09913,-0.35528 -0.04662,-0.16616 -0.17878,-0.0877 -0.136437,0.081 0.02893,0.11527 -0.01004,0.24164 -0.128214,0.41578 -0.09338,0.1376 -0.205397,0.37522 -0.248924,0.52805 -0.04354,0.15284 -0.115263,0.32356 -0.159399,0.37939 -0.06468,0.0818 -0.234767,0.50247 -0.234767,0.58062 0,0.0184 0.219872,0.068 0.385131,0.0869 0.04433,0.005 0.09803,-0.019 0.119343,-0.0535 z m 22.132382,2.0101 c -0.29777,-0.034 -0.58707,-0.0857 -0.6429,-0.11487 -0.13084,-0.0683 -0.17362,-0.34069 -0.0555,-0.35311 0.0491,-0.005 0.16543,-0.0162 0.25848,-0.0246 0.30073,-0.027 0.31573,-0.0325 0.32132,-0.11831 0.003,-0.0465 0.0271,-0.26731 0.0535,-0.49064 0.0264,-0.22332 0.0555,-0.54308 0.0647,-0.71057 0.009,-0.16749 0.0382,-0.4568 0.0644,-0.6429 0.0733,-0.52015 0.15986,-1.68802 0.12764,-1.72311 -0.0158,-0.0172 -0.0878,0.006 -0.16007,0.0508 -0.34048,0.21263 -0.73198,-0.03 -0.40539,-0.25123 0.32169,-0.21794 0.67825,-0.60247 0.67825,-0.73146 0,-0.31069 0.13984,-0.54343 0.352,-0.58586 0.36072,-0.0721 0.38467,0 0.35329,1.06226 -0.0156,0.52829 -0.0741,1.39842 -0.12997,1.93362 -0.12392,1.18685 -0.13156,1.98136 -0.0201,2.0928 0.10129,0.10129 0.0766,0.56596 -0.0338,0.63614 -0.0899,0.0572 -0.0646,0.0581 -0.82588,-0.0289 z m 19.80098,-0.0445 c -0.21347,-0.03 -0.31195,-0.0804 -0.34682,-0.17729 -0.0697,-0.1936 -0.0226,-0.23672 0.25979,-0.23789 0.33456,-0.001 0.39791,-0.053 0.4555,-0.37133 0.0269,-0.14879 0.0762,-0.32338 0.10958,-0.38798 0.0333,-0.0646 0.0763,-0.2473 0.0955,-0.40604 0.0192,-0.15873 0.0649,-0.49831 0.1017,-0.75463 0.0719,-0.50124 0.0541,-0.58079 -0.1011,-0.45201 -0.13686,0.11358 -0.40515,0.0639 -0.43259,-0.0802 -0.013,-0.0682 0.0186,-0.11843 0.0744,-0.11843 0.0533,0 0.23719,-0.12345 0.40862,-0.27434 0.26513,-0.23338 0.33225,-0.26335 0.4494,-0.20064 0.17619,0.0943 0.17624,0.0934 -0.0721,1.45625 -0.27433,1.50568 -0.27632,1.5565 -0.0609,1.5565 0.14141,0 0.17267,0.0361 0.1904,0.21994 0.0209,0.2173 0.0177,0.21995 -0.2707,0.22086 -0.16055,6.8e-4 -0.35281,0.0118 -0.42725,0.025 -0.0744,0.0132 -0.2695,0.005 -0.43346,-0.0178 z m 23.481694,-0.0476 c 0.003,-0.0788 0.0193,-0.0949 0.0409,-0.0409 0.0196,0.0489 0.0172,0.10723 -0.005,0.12972 -0.0225,0.0225 -0.0385,-0.0175 -0.0356,-0.0888 z m -39.898424,-0.0401 c -0.18579,-0.0354 -0.38374,-0.10407 -0.43988,-0.15253 -0.0561,-0.0485 -0.19344,-0.10984 -0.3051,-0.13639 -0.22549,-0.0536 -0.72178,-0.40814 -0.84486,-0.60351 -0.0437,-0.0693 -0.13702,-0.346 -0.20743,-0.61484 l -0.12803,-0.48878 0.16415,-0.45255 c 0.18786,-0.51791 0.22287,-0.58484 0.30596,-0.58484 0.033,0 0.24841,-0.11039 0.47862,-0.24532 0.394,-0.23091 0.44486,-0.24333 0.86647,-0.21145 0.56997,0.0431 0.74351,0.12913 0.96577,0.47886 0.1656,0.26055 0.22737,0.53536 0.20254,0.90107 -0.0138,0.2029 -0.45535,0.37276 -0.83745,0.32215 -0.15895,-0.0211 -0.48695,-0.002 -0.72888,0.0429 -0.24193,0.0446 -0.55509,0.0961 -0.6959,0.11437 -0.22523,0.0292 -0.2505,0.0507 -0.21018,0.17818 0.0803,0.25383 0.242,0.45168 0.53281,0.65177 0.25394,0.17471 0.9303,0.43115 1.28686,0.4879 0.0903,0.0144 0.14247,0.0832 0.15676,0.20707 0.0241,0.20847 -6.7e-4,0.21309 -0.56223,0.10597 z m -0.57579,-2.15029 c 0.86265,-0.13953 0.81208,-0.11677 0.81208,-0.36546 0,-0.66061 -1.30367,-0.50961 -1.47644,0.17102 -0.0657,0.2588 -0.0397,0.35112 0.0856,0.30357 0.0392,-0.0149 0.29961,-0.064 0.57876,-0.10913 z m 93.139253,2.15758 c -0.11913,-0.0359 -0.23513,-0.0952 -0.25777,-0.13183 -0.0226,-0.0366 -0.10817,-0.0666 -0.19007,-0.0666 -0.2099,0 -0.32538,-0.21003 -0.24762,-0.45035 0.0343,-0.1059 0.079,-0.27629 0.0994,-0.37865 0.0245,-0.12297 0.0797,-0.1861 0.16283,-0.1861 0.19113,0 0.27748,0.15188 0.23503,0.41346 -0.0523,0.3225 0.0884,0.42854 0.55443,0.41763 0.28289,-0.007 0.4167,-0.0493 0.6049,-0.19283 0.39973,-0.30488 0.52305,-0.53362 0.55763,-1.0343 0.0297,-0.43021 0.0222,-0.45831 -0.17236,-0.64256 -0.15797,-0.14962 -0.28114,-0.19796 -0.55115,-0.21633 -0.47126,-0.032 -0.61242,-0.0852 -0.61242,-0.23067 0,-0.13753 0.23138,-0.31216 0.50439,-0.38068 0.3869,-0.0971 0.44602,-0.46314 0.15458,-0.95709 -0.21515,-0.36465 -0.56964,-0.26496 -0.89595,0.25195 -0.12527,0.19845 -0.19603,0.25078 -0.30171,0.22315 -0.18528,-0.0485 -0.17385,-0.18639 0.044,-0.53067 0.3352,-0.52984 0.82796,-0.64506 1.29188,-0.30207 0.36645,0.27094 0.53772,0.85935 0.38012,1.30601 -0.13008,0.36871 -0.12017,0.43274 0.0746,0.48161 0.093,0.0233 0.24375,0.15606 0.33505,0.29495 0.18617,0.28321 0.32742,0.80774 0.2332,0.86597 -0.0333,0.0206 -0.0606,0.097 -0.0606,0.16981 0,0.20825 -0.3907,0.84697 -0.62949,1.02911 -0.11918,0.0909 -0.32321,0.18327 -0.45342,0.20526 -0.13019,0.022 -0.32808,0.0551 -0.43975,0.0735 -0.11166,0.0184 -0.30049,0.004 -0.41963,-0.0317 z m -104.375793,-0.1001 c -0.0715,-0.0862 -0.0664,-0.14786 0.0288,-0.34748 0.10109,-0.21198 0.10601,-0.30695 0.0389,-0.74997 -0.0711,-0.46894 -0.19754,-0.77392 -0.48107,-1.16024 -0.10674,-0.14545 -0.12059,-0.14737 -0.31945,-0.0445 -0.11432,0.0591 -0.2356,0.16046 -0.2695,0.22522 -0.0476,0.0908 -0.28074,1.4776 -0.28074,1.66961 0,0.0212 -0.0572,0.0385 -0.12706,0.0385 -0.24516,0 -0.31235,-0.18593 -0.29768,-0.82369 0.0164,-0.71378 -0.0482,-0.93583 -0.272359,-0.93583 -0.306305,0 -0.437869,0.24586 -0.488888,0.9136 -0.05281,0.69112 -0.05935,0.71057 -0.239152,0.71057 -0.07225,0 -0.131355,0.0424 -0.131355,0.0943 0,0.11178 -0.202493,0.20402 -0.279283,0.12723 -0.05634,-0.0563 -0.118679,-0.73624 -0.134535,-1.46728 -0.0091,-0.4194 -0.0153,-0.43376 -0.20382,-0.47146 -0.242055,-0.0484 -0.252321,-0.20596 -0.03141,-0.48207 0.14675,-0.18342 0.202216,-0.20372 0.576756,-0.21114 0.285414,-0.006 0.45382,-0.0439 0.541078,-0.12285 0.174849,-0.15824 0.564268,-0.0778 0.853698,0.1763 0.17896,0.15713 0.26222,0.18739 0.41504,0.15084 0.10515,-0.0252 0.2248,-0.072 0.2659,-0.10418 0.12712,-0.0994 0.59185,-0.0845 0.80529,0.0259 0.25469,0.1317 0.38555,0.27954 0.56708,0.64065 0.16871,0.3356 0.17629,0.59681 0.0397,1.36921 -0.13913,0.78687 -0.3418,1.06096 -0.57591,0.77887 z m -6.881501,-0.0423 c -0.274653,-0.0939 -0.361384,-0.31851 -0.171613,-0.44452 0.07456,-0.0495 0.268928,-0.21029 0.431941,-0.35731 0.163012,-0.14702 0.33445,-0.26774 0.380975,-0.26827 0.05039,-6.8e-4 0.08459,-0.0912 0.08459,-0.22422 0,-0.19018 0.03259,-0.23524 0.219939,-0.30414 0.208895,-0.0768 0.727492,-0.70956 0.727492,-0.88761 0,-0.0443 -0.14185,-0.0699 -0.359455,-0.0649 -0.534562,0.0123 -0.786971,-0.0922 -0.789962,-0.3272 -7.45e-4,-0.0594 0.245473,-0.0819 0.909047,-0.0833 0.73403,-0.001 0.930405,0.0185 1.015106,0.10317 0.159696,0.15969 0.129189,0.25084 -0.157782,0.4714 -0.144544,0.11109 -0.378194,0.35362 -0.519219,0.53895 -0.141026,0.18533 -0.302096,0.37085 -0.357933,0.41227 -0.0856,0.0635 -0.07051,0.0902 0.09626,0.1701 0.332007,0.15912 0.255901,0.29904 -0.151041,0.27767 -0.335513,-0.0176 -0.358271,-0.007 -0.59674,0.27069 l -0.247929,0.28902 0.495236,0.0359 c 0.272373,0.0197 0.734652,0.005 1.027287,-0.0325 l 0.532057,-0.0684 -0.03824,-0.32283 c -0.03546,-0.2994 -0.02741,-0.32275 0.110843,-0.32179 0.08199,6.8e-4 0.18326,0.0234 0.225035,0.0508 0.08915,0.0584 0.294746,1.02393 0.226937,1.06584 -0.116967,0.0723 -2.887711,0.0912 -3.092837,0.0211 z m 59.026095,-0.0567 c -0.067,-0.074 -0.16371,-0.13458 -0.21494,-0.13458 -0.0512,0 -0.11349,-0.0533 -0.13836,-0.11843 -0.0249,-0.0651 -0.0985,-0.17584 -0.16369,-0.246 -0.50522,-0.54402 -0.32997,-1.3494 0.35036,-1.61011 0.48465,-0.18572 0.94242,-0.16031 1.25687,0.0698 0.74192,0.54286 0.72846,0.99306 -0.0522,1.74431 -0.43153,0.41531 -0.82742,0.52783 -1.03809,0.29505 z m 0.55621,-0.48987 c 0.47037,-0.51442 0.47361,-1.13622 0.006,-1.21715 -0.14107,-0.0244 -0.23145,0.0188 -0.39758,0.19022 -0.19214,0.19823 -0.20986,0.24936 -0.16651,0.48057 0.0715,0.38129 0.21927,0.69862 0.32538,0.69862 0.0512,0 0.15582,-0.0685 0.23239,-0.15226 z m -47.676224,0.46039 c -0.38015,-0.0933 -1.02913,-0.65298 -1.02913,-0.88759 0,-0.26902 0.36968,-0.18011 0.63067,0.15169 0.3009,0.38252 0.90678,0.45113 1.24434,0.1409 0.13532,-0.12437 0.14062,-0.15386 0.0566,-0.31431 -0.051,-0.0974 -0.20417,-0.29888 -0.34033,-0.44776 -0.31246,-0.34166 -0.37312,-0.49557 -0.37312,-0.94665 0,-0.2831 0.0353,-0.40454 0.16096,-0.5539 0.0885,-0.10521 0.17636,-0.2522 0.19517,-0.32664 0.0266,-0.10541 0.0359,-0.10976 0.0421,-0.0196 0.006,0.0803 0.0649,0.1145 0.19395,0.11179 0.36939,-0.008 1.04799,0.17033 1.18999,0.31234 0.0834,0.0834 0.0824,0.14015 -0.007,0.42117 -0.0571,0.17864 -0.13328,0.36286 -0.16929,0.40939 -0.1042,0.13462 -0.44247,0.10273 -0.53832,-0.0508 -0.084,-0.13459 -0.25499,-0.18714 -0.25499,-0.0784 0,0.0313 0.0623,0.1303 0.13854,0.21994 0.3611,0.42479 0.53797,0.70137 0.51142,0.79972 -0.016,0.0592 -0.0469,0.21426 -0.0687,0.34453 -0.0807,0.48165 -0.94321,0.87095 -1.5823,0.71417 z m 18.8664,-0.004 c -0.0681,-0.0821 -0.0354,-0.20745 0.17679,-0.6787 0.21394,-0.47504 0.28474,-0.57453 0.39732,-0.55841 0.16592,0.0238 0.2286,0.40988 0.0931,0.57319 -0.073,0.088 -0.0612,0.12572 0.073,0.2344 0.13511,0.10941 0.23419,0.12405 0.63705,0.0941 0.26237,-0.0195 0.53189,-0.0529 0.59892,-0.0741 0.1446,-0.0459 0.46068,-0.56022 0.46068,-0.74961 0,-0.073 0.0358,-0.16861 0.0796,-0.21239 0.11619,-0.11619 -0.0661,-0.29114 -0.51246,-0.49182 -0.36728,-0.16513 -0.38972,-0.19138 -0.68342,-0.79944 -0.10205,-0.2113 -0.10159,-0.23617 0.007,-0.35575 0.064,-0.0707 0.15036,-0.19689 0.19192,-0.28037 0.11672,-0.23449 0.54222,-0.34829 0.91772,-0.24544 0.42874,0.11744 0.57184,0.22584 0.71387,0.54082 0.14095,0.31256 0.0851,0.48512 -0.16909,0.52274 -0.22093,0.0327 -0.49541,-0.24487 -0.44415,-0.44913 0.032,-0.12762 0.0158,-0.15487 -0.0809,-0.13624 -0.17233,0.0332 -0.26862,0.52552 -0.15597,0.79749 0.0468,0.1129 0.1075,0.20527 0.13496,0.20527 0.0275,0 0.19127,0.1244 0.364,0.27644 0.29562,0.26022 0.31406,0.2965 0.31406,0.61799 0,0.30475 -0.0264,0.36641 -0.24466,0.57229 -0.55333,0.52186 -1.34592,0.73084 -2.05625,0.54217 -0.29681,-0.0788 -0.39276,-0.0819 -0.47371,-0.0152 -0.19064,0.15707 -0.25538,0.17039 -0.33891,0.0697 z m 16.07107,0.008 c -0.37518,-0.16346 -0.68639,-0.51967 -0.74195,-0.84927 -0.0461,-0.27332 -0.0346,-0.31388 0.12541,-0.44143 0.19627,-0.1565 0.87146,-0.37597 1.31217,-0.4265 0.15818,-0.0181 0.28761,-0.0605 0.28761,-0.094 0,-0.15471 -0.20599,-0.51506 -0.39725,-0.6949 l -0.2109,-0.19834 -0.15708,0.14758 c -0.0864,0.0812 -0.23415,0.14757 -0.32834,0.14757 -0.18467,0 -0.39525,-0.18535 -0.39525,-0.34789 0,-0.14327 0.36847,-0.39652 0.57693,-0.39652 0.097,0 0.22922,-0.0283 0.29382,-0.0629 0.19043,-0.10191 0.68049,0.16379 1.0679,0.579 0.38112,0.40848 0.44756,0.59411 0.43372,1.21181 -0.01,0.44617 0.15773,0.92689 0.39979,1.14596 0.16731,0.15141 0.17655,0.2774 0.0246,0.3357 -0.0759,0.0291 -0.19385,-0.0354 -0.35813,-0.19578 -0.22986,-0.22444 -0.43599,-0.30414 -0.48741,-0.18845 -0.0124,0.0279 -0.13472,0.1345 -0.27182,0.23685 -0.20054,0.14974 -0.31957,0.18559 -0.60906,0.18346 -0.19789,-0.001 -0.45205,-0.0428 -0.5648,-0.092 z m 0.84131,-0.44346 c 0.21758,-0.10983 0.41518,-0.25075 0.43913,-0.31316 0.024,-0.0624 -0.012,-0.20856 -0.0799,-0.32477 -0.11096,-0.19 -0.15814,-0.21229 -0.46767,-0.22099 l -0.34427,-0.01 -0.008,0.53414 c -0.004,0.29377 0.009,0.53414 0.0285,0.53414 0.02,0 0.21436,-0.0899 0.43194,-0.1997 z m 61.088383,0.31093 c -0.0522,-0.27826 0.009,-1.97805 0.0979,-2.7149 0.11421,-0.94768 0.11968,-0.93944 -0.32198,-0.48542 -0.45571,0.46846 -0.68372,0.58272 -0.81219,0.40704 -0.1282,-0.17533 -0.10724,-0.25423 0.10012,-0.37672 0.1027,-0.0607 0.4443,-0.40221 0.75913,-0.759 0.31482,-0.35678 0.62296,-0.6487 0.68475,-0.6487 0.29464,0 0.32201,0.39867 0.0953,1.38731 -0.0512,0.22333 -0.11028,0.94239 -0.13126,1.59792 -0.0517,1.61784 -0.0824,1.81961 -0.27662,1.81961 -0.11941,0 -0.16169,-0.0492 -0.19507,-0.22714 z M 58.688477,142.4464 c -0.14228,-0.0371 -0.32053,-0.35756 -0.32053,-0.57625 0,-0.12259 0.0574,-0.17399 0.26779,-0.23964 0.18136,-0.0566 0.32243,-0.0628 0.43703,-0.0192 0.1592,0.0605 0.16677,0.0855 0.1279,0.42239 -0.0513,0.44414 -0.13451,0.51123 -0.51219,0.41274 z"
       id="path889"
       inkscape:connector-curvature="0"
       sodipodi:nodetypes="cccccccscccscccccsccccccccscsscccccccccccccccccccccscccccscccccccccccccsccscccccccccccccsscsscccsccccccccsccsccccccsccccccccccssccccccccccccccccsccccccsccccccsccccccccccccccccccccccccccscccscscsccccsccccccsccscccscccccccccccccccccsccccccccccccccccccccccccccccscccccccccccccccccccccccscscccccccsccccccccccccccsccccccccccccccccscccscccccccccccccccccsccccccccccccccscccccsccsccccccsccccccccccscccccccccccsscscssccccccccccccccccccscscccccccccccccccccccccscccccccccccscccsccccsccccccccsccccccccccccscccccccccccscscccccccccscccssscccccccccccccccccsccccccccsccscccsccccc" />
  </g>
</svg>
